<svg width="97" height="34" viewBox="0 0 97 34" fill="none" xmlns="http://www.w3.org/2000/svg">
<g clip-path="url(#clip0_127_589)">
<mask id="mask0_127_589" style="mask-type:luminance" maskUnits="userSpaceOnUse" x="0" y="0" width="97" height="34">
<path d="M0.353516 0.391136H96.3535V33.6091H0.353516V0.391136Z" fill="white"/>
</mask>
<g mask="url(#mask0_127_589)">
<path d="M79.7445 29.8913C76.7931 29.8913 74.0725 28.8921 71.8971 27.2173C74.1048 24.3974 75.4262 20.8511 75.4262 16.9998C75.4262 13.1488 74.1048 9.60245 71.8971 6.78224C74.0725 5.10773 76.7931 4.10819 79.7445 4.10819C86.8528 4.10819 92.6361 9.89145 92.6361 16.9998C92.6361 24.1084 86.8528 29.8913 79.7445 29.8913ZM50.9694 27.2173C53.1774 24.3974 54.4988 20.8511 54.4988 16.9998C54.4988 13.1488 53.1774 9.60245 50.9698 6.78224C53.1449 5.10773 55.8661 4.10819 58.8172 4.10819C61.7686 4.10819 64.4892 5.10773 66.6646 6.78224C64.4569 9.60245 63.1355 13.1488 63.1355 16.9998C63.1355 20.8511 64.4569 24.3974 66.6646 27.2173C64.4892 28.8921 61.7686 29.8913 58.8172 29.8913C55.8661 29.8913 53.1449 28.8921 50.9694 27.2173ZM30.0421 27.2173C32.2501 24.3974 33.5715 20.8511 33.5715 16.9998C33.5715 13.1488 32.2501 9.60245 30.0424 6.78224C32.2175 5.10773 34.9388 4.10819 37.8898 4.10819C40.8409 4.10819 43.5621 5.10773 45.7373 6.78224C43.5296 9.60245 42.2082 13.1488 42.2082 16.9998C42.2082 20.8511 43.5296 24.3974 45.7373 27.2173C43.5621 28.8921 40.8409 29.8913 37.8898 29.8913C34.9388 29.8913 32.2175 28.8921 30.0421 27.2173ZM4.07094 16.9998C4.07094 9.89145 9.85419 4.10819 16.9625 4.10819C19.9136 4.10819 22.6348 5.10773 24.8099 6.78224C22.6023 9.60245 21.2809 13.1488 21.2809 16.9998C21.2809 20.8511 22.6023 24.3974 24.8099 27.2173C22.6348 28.8921 19.9136 29.8913 16.9625 29.8913C9.85419 29.8913 4.07094 24.1084 4.07094 16.9998ZM27.4262 24.516C25.9005 22.3984 24.9983 19.8034 24.9983 16.9998C24.9983 14.1965 25.9005 11.6012 27.4262 9.48353C28.9519 11.6012 29.8541 14.1965 29.8541 16.9998C29.8541 19.8034 28.9519 22.3984 27.4262 24.516ZM48.3535 24.516C46.8278 22.3984 45.9256 19.8034 45.9256 16.9998C45.9256 14.1965 46.8278 11.6012 48.3535 9.48353C49.8792 11.6012 50.7814 14.1965 50.7814 16.9998C50.7814 19.8034 49.8792 22.3984 48.3535 24.516ZM69.2809 24.516C67.7551 22.3984 66.8529 19.8034 66.8529 16.9998C66.8529 14.1965 67.7551 11.6012 69.2809 9.48353C70.8066 11.6012 71.7088 14.1965 71.7088 16.9998C71.7088 19.8034 70.8066 22.3984 69.2809 24.516ZM79.7445 0.39077C75.781 0.39077 72.1389 1.78825 69.2809 4.11351C66.4228 1.78825 62.7808 0.39077 58.8172 0.39077C54.8536 0.39077 51.2116 1.78825 48.3535 4.11351C45.4954 1.78825 41.8531 0.39077 37.8898 0.39077C33.9263 0.39077 30.2843 1.78825 27.4262 4.11351C24.5681 1.78825 20.9258 0.39077 16.9625 0.39077C7.80431 0.39077 0.353516 7.84157 0.353516 16.9998C0.353516 26.1583 7.80431 33.6088 16.9625 33.6088C20.9258 33.6088 24.5681 32.2116 27.4262 29.886C30.2843 32.2116 33.9263 33.6088 37.8898 33.6088C41.8531 33.6088 45.4954 32.2116 48.3535 29.886C51.2116 32.2116 54.8536 33.6088 58.8172 33.6088C62.7808 33.6088 66.4228 32.2116 69.2809 29.886C72.1389 32.2116 75.781 33.6088 79.7445 33.6088C88.9027 33.6088 96.3535 26.1583 96.3535 16.9998C96.3535 7.84157 88.9027 0.39077 79.7445 0.39077Z" fill="#EEEEF0"/>
</g>
</g>
<defs>
<clipPath id="clip0_127_589">
<rect width="96" height="33.218" fill="white" transform="translate(0.353516 0.390991)"/>
</clipPath>
</defs>
</svg>
