<svg width="65" height="64" viewBox="0 0 65 64" fill="none" xmlns="http://www.w3.org/2000/svg">
<g clip-path="url(#clip0_127_586)">
<path d="M32.5099 64C41.0574 64 49.0931 60.6712 55.1373 54.6273C61.1813 48.5832 64.51 40.5474 64.51 31.9999C64.51 23.4526 61.1813 15.4168 55.1373 9.3727C49.0932 3.32862 41.0574 0 32.5099 0C14.8651 0 0.51001 14.355 0.51001 31.9999C0.51001 40.5474 3.83863 48.5832 9.88271 54.6273C15.9268 60.6712 23.9626 64 32.5099 64Z" fill="black"/>
<path d="M1.61719 31.9999C1.61719 23.7484 4.83065 15.9905 10.6656 10.1556C16.5005 4.32051 24.2583 1.10718 32.5099 1.10718C40.7616 1.10718 48.5195 4.32051 54.3543 10.1556C60.1892 15.9905 63.4027 23.7483 63.4027 31.9999C63.4027 49.0344 49.5442 62.8928 32.5099 62.8928C24.2583 62.8928 16.5005 59.6793 10.6656 53.8444C4.83065 48.0093 1.61719 40.2516 1.61719 31.9999Z" fill="#EEEEF0"/>
<path d="M32.5099 2.38037C16.1517 2.38037 2.89038 15.6417 2.89038 31.9999C2.89038 48.3582 16.1517 61.6196 32.5099 61.6196C48.8682 61.6196 62.1295 48.3582 62.1295 31.9999C62.1295 15.6417 48.8682 2.38037 32.5099 2.38037Z" fill="black"/>
<path d="M32.51 50.92C22.0609 50.92 13.59 42.4492 13.59 32C13.59 21.5509 22.0609 13.08 32.51 13.08C42.959 13.08 51.43 21.5509 51.43 32C51.43 42.4492 42.9592 50.92 32.51 50.92Z" fill="#EEEEF0"/>
<path d="M14.8071 31.9999H32.5099V14.2971C22.7331 14.2971 14.8071 22.2232 14.8071 31.9999ZM32.5099 31.9999V49.7028C42.2868 49.7028 50.2127 41.7769 50.2127 31.9999H32.5099Z" fill="black"/>
<path d="M18.6061 13.9481C17.9789 13.3385 17.0095 13.1548 16.0994 13.7191C16.2732 13.2686 16.2022 12.8088 16.1099 12.5551C15.7178 11.8402 15.5809 11.7507 15.2578 11.4795C14.2117 10.6018 13.1108 11.3512 12.3235 12.2895L8.51917 16.8232L14.4994 21.8413L18.5113 17.0603C19.428 15.9679 19.5697 14.8848 18.6061 13.9481ZM33.501 11.7938L35.5547 6.3502V11.7938H37.1156V3.99756H34.7704L32.6373 9.57958H32.6594L30.5263 3.99756H28.1812V11.7938H29.742V6.3502L31.7959 11.7938H33.501ZM54.4867 15.0373L51.548 19.1979L56.1038 17.035L57.3101 18.5246L50.1393 22.0006L48.7236 20.2383L51.5441 16.1142L51.5274 16.0935L46.907 17.9949L45.4774 16.2438L50.3685 9.95241L51.5748 11.4421L48.5119 15.4487L53.1926 13.4392L54.4867 15.0373Z" fill="#EEEEF0"/>
<path d="M13.1547 13.4116C13.4195 13.096 14.0177 13.109 14.4025 13.4317C14.8255 13.7867 14.8266 14.29 14.5424 14.6284L12.2833 17.3208L10.8698 16.1346L13.1547 13.4116ZM17.1743 16.5877L14.7924 19.4263L13.2988 18.173L15.7 15.3113C15.9711 14.9881 16.5757 14.894 16.9834 15.2363C17.445 15.6234 17.4907 16.2107 17.1743 16.5877Z" fill="black"/>
</g>
<defs>
<clipPath id="clip0_127_586">
<rect width="64" height="64" fill="white" transform="translate(0.51001)"/>
</clipPath>
</defs>
</svg>
