<svg width="49" height="64" viewBox="0 0 49 64" fill="none" xmlns="http://www.w3.org/2000/svg">
<path fill-rule="evenodd" clip-rule="evenodd" d="M46.593 6.91863V8.05628L24.5824 4.18824L2.57349 8.05628V6.91863L24.5824 3.02515L46.593 6.91863Z" fill="#EEEEF0"/>
<path fill-rule="evenodd" clip-rule="evenodd" d="M46.593 5.75517V6.91857L24.5824 3.02509L2.57349 6.91857V5.75517L24.5824 1.86267L46.593 5.75517Z" fill="black"/>
<path fill-rule="evenodd" clip-rule="evenodd" d="M46.593 8.05627L24.5824 4.18823L2.57349 8.05627L2.57382 11.981L2.76455 11.8727C2.84212 11.8292 10.6519 7.48727 24.6248 7.48727C38.5986 7.48727 46.3172 11.8302 46.3955 11.8733L46.5842 11.982L46.593 8.05627Z" fill="black"/>
<path fill-rule="evenodd" clip-rule="evenodd" d="M24.6251 8.24585C37.2433 8.24585 44.6319 11.8064 45.8294 12.4308V23.7295C45.8294 29.8894 44.3826 36.0259 41.5309 41.9718C35.2889 54.9586 25.8965 60.0581 24.5828 60.7236C23.268 60.0581 13.8685 54.9586 7.62815 41.9718C4.77646 36.0259 3.32996 29.8894 3.32996 23.7295V12.4322C4.53831 11.8085 12.0046 8.24585 24.6251 8.24585Z" fill="#EEEEF0"/>
<path fill-rule="evenodd" clip-rule="evenodd" d="M2.76494 11.8723L2.57422 11.9807V23.7295C2.57422 30.0049 4.04545 36.2527 6.94725 42.2988C13.7594 56.481 24.3206 61.442 24.4263 61.4905L24.5828 61.562L24.739 61.4905C24.8457 61.442 35.3981 56.4795 42.2098 42.2988C45.113 36.2527 46.5846 30.0049 46.5846 23.7295V11.9817L46.3959 11.873C46.318 11.8299 38.599 7.48694 24.6251 7.48694C10.6523 7.48694 2.84252 11.8288 2.76494 11.8723ZM24.6251 8.24584C37.2433 8.24584 44.632 11.8064 45.8295 12.4308V23.7295C45.8295 29.8894 44.3827 36.0258 41.531 41.9717C35.289 54.9585 25.8965 60.058 24.5828 60.7235C23.2681 60.058 13.8685 54.9585 7.6282 41.9717C4.7765 36.0258 3.32999 29.8894 3.32999 23.7295V12.4321C4.53835 11.8085 12.0046 8.24584 24.6251 8.24584Z" fill="black"/>
<path fill-rule="evenodd" clip-rule="evenodd" d="M27.93 49.7747C28.2965 50.0285 28.0306 50.47 27.7593 50.539C27.4767 50.616 27.2352 50.3015 27.0983 50.6465C27.0214 50.8315 27.2301 52.234 28.661 52.234C29.9968 52.234 30.634 50.5145 30.7597 50.2555C30.886 49.9975 30.9673 49.668 30.841 49.668C30.2549 49.668 30.0842 50.017 30.0842 50.017C30.0842 50.017 30.0398 49.6813 30.3311 49.4279C30.5713 49.221 30.8863 49.2713 31.0002 49.2713C31.239 49.2713 31.2014 49.0929 31.3457 48.74C31.6746 47.9095 31.9009 47.8721 32.1147 47.4933C32.2919 47.1849 31.9572 47.064 31.2969 47.0018C30.6347 46.9386 30.28 46.9655 29.9842 47.0086C29.6878 47.0511 29.3928 47.1717 29.2088 47.6262C29.1102 47.8724 29.2908 48.115 29.6377 48.0521C29.9842 47.9872 30.3179 47.7243 30.3179 47.7243C30.3179 47.7243 30.1617 48.3466 29.6445 48.4754C29.1648 48.5936 28.5984 48.3035 28.6746 47.8167C28.7738 47.1852 29.2091 46.7226 30.0032 46.5667C30.7986 46.406 31.5913 46.529 32.2983 46.7032C33.0029 46.8816 33.5216 46.7735 34.1767 46.7352C35.5894 46.6594 36.4647 46.3252 36.4647 46.3252C36.4647 46.3252 35.8282 46.8432 34.9457 47.0827C34.0632 47.3242 33.2763 47.224 33.0216 47.3242C32.8159 47.4125 32.5253 47.8218 32.2858 48.2896C32.0656 48.7196 31.8312 49.2152 31.9324 49.2152C32.7529 49.2465 33.0534 49.0664 33.0534 49.0664C33.0534 49.0664 32.8911 49.4214 32.5002 49.5892C32.2289 49.6993 31.7685 49.6993 31.7685 49.6993C31.7685 49.6993 31.5615 50.2245 31.3284 50.699C31.0937 51.173 30.7092 51.913 30.0171 52.279C29.3223 52.6445 27.9937 53.1005 27.1569 51.8935C26.2718 50.6275 27.0797 49.1874 27.93 49.7747ZM17.6571 49.9398C17.8204 50.359 17.4735 50.5775 17.2719 50.5775C17.0697 50.5775 16.818 50.427 16.7655 50.6805C16.7174 50.9315 17.3024 52.228 18.6635 52.228C20.0254 52.228 20.6565 51.438 20.5606 50.73C20.4539 49.9401 19.2022 49.6262 18.2045 49.1001C17.7164 48.8433 16.613 48.6714 16.613 47.6357C16.613 45.4243 19.9691 46.8367 19.9691 46.8367C19.9691 46.8367 19.9762 46.5602 20.1324 46.5473C20.208 46.5402 20.3597 46.5103 20.4102 46.7603C20.46 47.0123 20.6819 48.3405 20.6819 48.3405C20.6819 48.3405 20.1886 47.3293 18.835 46.8877C18.5955 46.8034 17.5484 46.6037 17.5544 47.4349C17.567 47.9285 18.1669 48.15 19.2069 48.5549C20.5738 49.0923 21.274 49.5926 20.9512 51.0335C20.6439 52.417 19.295 52.6445 18.6392 52.6445C17.9847 52.6445 16.4785 52.1845 16.4785 50.6665C16.4785 49.593 17.5287 49.6181 17.6571 49.9398ZM24.8283 41.6249L25.3795 41.8868C25.6972 42.0101 25.9001 41.9558 25.973 41.9252C26.0499 41.8919 26.3409 41.5787 26.4042 41.312C26.434 41.2033 26.4181 41.1089 26.3605 41.0393C26.1461 40.7845 25.7663 39.6143 25.6254 38.9818C25.5732 38.7471 25.6366 38.0993 25.6857 37.5779C25.7287 37.1301 25.7552 36.8519 25.7328 36.7803C25.6952 36.6695 25.5302 36.5625 25.3405 36.4419L25.04 36.2368C24.8798 36.1053 24.8727 35.9263 24.8639 35.734L24.832 35.4354C24.7622 35.1576 23.352 33.7132 23.1335 33.7C22.8167 33.6793 22.7344 34.0278 22.7141 34.2374C22.7016 34.36 22.8428 34.9076 22.9702 35.393L23.1108 35.9783C23.2551 36.8985 24.2307 38.5191 24.6467 39.2107L24.8442 39.547C24.9296 39.742 24.8964 39.8959 24.7446 39.9822C24.5973 40.0671 23.3293 39.9343 22.7236 39.7943C22.4634 39.7345 22.1423 39.6044 21.8289 39.477C21.4702 39.3337 21.1301 39.1944 20.9336 39.1846C20.7042 39.1727 20.5955 39.2192 20.5111 39.2583L20.3736 39.2967L20.2367 39.2529C20.0687 39.1785 19.7547 39.0426 18.8973 38.9648C17.6476 38.8473 17.5538 39.0993 17.503 39.2355C17.441 39.4088 18.2049 40.2233 18.3414 40.3324C18.5152 40.473 19.0772 40.6874 19.4203 40.6303C19.8126 40.5671 20.4522 40.4876 20.5315 40.5036L20.6602 40.5824L20.7798 40.6673C20.8882 40.7118 21.5867 40.7502 21.7978 40.7614C22.0413 40.7747 22.6809 40.9075 23.1484 41.0056L23.6708 41.1113C23.8754 41.149 24.4025 41.4099 24.8283 41.6249Z" fill="black"/>
<path fill-rule="evenodd" clip-rule="evenodd" d="M37.7561 25.3732C37.7283 25.3389 37.7053 25.3368 37.6907 25.3406C37.6775 25.345 37.6596 25.3575 37.6545 25.3983C37.6315 25.5729 37.4129 26.0216 37.2395 26.0879C36.8882 26.2241 36.7063 26.6371 36.5745 26.9381C36.5071 27.0933 36.4414 27.2414 36.3892 27.2435C36.3669 27.2452 36.3421 27.2211 36.315 27.1708C36.0986 26.7965 36.2198 26.2241 36.3171 25.7628L36.3394 25.6497C36.4187 25.2607 36.8726 24.7159 37.144 24.3891L37.2639 24.2444C37.4485 24.0134 37.4949 23.2307 37.4604 23.172C37.4492 23.1686 37.4417 23.175 37.4373 23.1818C37.4331 23.1852 37.4296 23.1894 37.4268 23.1941L37.4228 23.1934V23.1975C37.4116 23.2097 37.4021 23.211 37.393 23.2505C37.3445 23.495 36.8987 23.992 36.1372 24.6523C35.981 24.7879 35.8032 25.0328 35.6575 25.2295C35.5637 25.3586 35.4536 25.5073 35.4244 25.5145C35.2357 24.5049 35.5772 23.9278 35.7395 23.6489L35.815 23.5073C36.1372 22.6281 36.9668 21.9624 36.9756 21.9562C36.9868 21.9308 36.9868 21.9036 36.9665 21.8863C36.9346 21.8618 36.8764 21.8723 36.7845 21.9185L36.7344 21.9437C36.4451 22.0846 35.5725 22.5109 35.0372 23.5375C34.6527 24.2766 34.504 25.1028 34.504 25.7258C34.504 26.0437 34.5423 26.3073 34.6073 26.4819C34.7954 26.9846 35.1246 28.234 35.2259 28.7245C35.2889 29.0285 35.2987 30.0724 35.2987 30.7266C35.2987 31.0463 35.2974 31.2701 35.2974 31.2786C35.2954 31.2786 35.1314 31.8092 35.1314 31.8092C35.1307 31.8147 35.0515 32.2291 34.376 32.9217C33.6957 33.6184 32.9383 33.8399 32.9315 33.8426C32.6273 33.8664 32.3498 33.8538 32.34 33.8141C32.34 33.0178 30.9802 31.1655 30.2844 30.5544C29.5744 29.9304 29.007 29.4834 28.0428 28.895C27.0611 28.2958 25.9693 25.7838 25.9568 25.7594L25.8622 25.42C25.8622 25.42 25.8094 24.7424 25.7948 24.5661C25.8304 24.5864 25.8768 24.6153 25.8768 24.6153L26.2115 24.8106L26.596 24.9587C26.5994 24.9598 27.0994 25.0579 27.0994 25.0579C27.0994 25.0589 27.3792 25.2026 27.3792 25.2026L27.6387 25.3718L28.0422 25.6639L28.4565 25.8823C28.4649 25.8847 28.9541 25.9099 28.9541 25.9099L28.9653 25.8694C28.9653 25.8694 28.3989 25.6028 28.3975 25.6028C28.3975 25.5946 28.1936 25.2448 28.1936 25.2448C28.1143 25.1306 28.0351 25.0164 27.9561 24.902C27.9483 24.8966 27.6617 24.725 27.6617 24.725C27.5404 24.7065 27.4189 24.6893 27.2972 24.6734C27.2972 24.6703 27.2258 24.6089 27.1888 24.5756C27.2207 24.5569 27.2806 24.5195 27.2806 24.5195C27.2806 24.5239 27.6709 24.5691 27.6722 24.5691C27.6722 24.5732 28.0195 24.81 28.0195 24.81L28.3985 25.1028C28.4046 25.1058 28.7573 25.2431 28.7573 25.2431L28.8037 25.2614L28.6489 24.8575C28.5521 24.7645 28.4547 24.6722 28.3565 24.5807L27.927 24.2145C27.9236 24.2114 27.5896 24.0389 27.5896 24.0389C27.5862 24.0382 27.2298 23.9176 27.2298 23.9176L26.8528 23.6757C26.8528 23.6757 26.8568 23.6499 26.8596 23.6278C26.9073 23.6462 27.3816 23.8371 27.3816 23.8371C27.3843 23.8374 27.8362 23.9607 27.8362 23.9607C27.8355 23.959 28.2153 24.1061 28.2153 24.1061C28.2139 24.1048 28.7603 24.3721 28.7603 24.3721C28.7651 24.3745 29.2177 24.473 29.2177 24.473C29.2255 24.4733 29.7759 24.3745 29.7759 24.3745C29.7831 24.3711 30.3078 24.0049 30.3078 24.0049C30.3139 23.995 30.4104 23.7773 30.4104 23.7773L30.4311 23.727L30.2624 23.797C30.261 23.797 29.7854 24.0389 29.7854 24.0389L29.4565 24.1126C29.4565 24.1109 29.0845 24.0378 29.0845 24.0378H29.0852C29.0852 24.0334 28.7841 23.7525 28.7841 23.7525L28.3565 23.3374L27.97 23.139C27.9646 23.1367 27.5127 23.0633 27.5127 23.0633C27.5127 23.0623 27.2376 22.922 27.2329 22.9196C27.2342 22.9196 27.2349 22.9145 27.2349 22.9074C27.2349 22.8741 27.2264 22.8014 27.223 22.7674L27.7915 22.8153L28.4141 22.765C28.4141 22.7667 28.7647 22.8384 28.7647 22.8384L29.1194 22.9852L29.4826 23.0344L29.548 23.0432L29.1431 22.655C29.1391 22.6529 28.7349 22.3601 28.7349 22.3601C28.7302 22.3577 28.3962 22.2351 28.3962 22.2351C28.3901 22.2338 27.8332 22.1865 27.822 22.1855C27.8267 22.1852 27.8274 22.1757 27.8274 22.1618C27.8274 22.1278 27.822 22.0795 27.8189 22.0547L28.0821 22.0099C28.0821 22.0116 28.5036 22.1067 28.5036 22.1067C28.5036 22.1081 28.9026 22.3482 28.9026 22.3482L29.3339 22.496C29.3464 22.4963 29.9636 22.3992 29.9636 22.3992L30.0005 22.3941L29.8125 22.1451C29.802 22.137 29.491 22.0401 29.491 22.0401C29.491 22.0384 29.2349 21.8486 29.2349 21.8486L28.8532 21.5795C28.8477 21.5765 28.5628 21.4793 28.5628 21.4793C28.5581 21.4776 28.1089 21.4056 28.1075 21.4053C28.1075 21.4005 27.8867 21.1967 27.8819 21.1933C27.8887 21.1919 27.9026 21.1209 27.9077 21.0887L28.1452 21.1553L28.4507 21.3013L28.8847 21.4392L28.7888 21.2473L28.6201 21.0707L28.4724 20.8798L28.5364 20.8638C28.5364 20.8696 28.9982 21.1057 28.9982 21.1057L29.3579 21.2286C29.3579 21.2307 29.6357 21.4919 29.6357 21.4919C29.6398 21.4953 30.1655 21.7928 30.1655 21.7928L30.2184 21.8227L30.1225 21.5653C30.1198 21.5595 29.8345 21.1936 29.8345 21.1936L29.5971 20.7819C29.595 20.7772 29.1652 20.3386 29.1652 20.3386C29.1611 20.3346 28.614 20.0414 28.6126 20.0414C28.6126 20.039 28.4043 19.8023 28.4043 19.8023C28.2768 19.6722 28.1495 19.5419 28.0225 19.4113C28.0225 19.4062 27.9836 19.2724 27.9636 19.2044C28.0283 19.2251 28.3342 19.3271 28.3342 19.3271L28.7624 19.4483C28.7624 19.4493 29.0679 19.6402 29.0679 19.6402C29.0679 19.6423 29.3227 19.9524 29.3227 19.9524C29.3318 19.9596 29.7377 20.1308 29.7377 20.1308L30.7719 20.2653L30.8322 20.2727L30.5483 19.9731C30.5412 19.9677 29.9931 19.7235 29.9931 19.7235L29.6642 19.483C29.6642 19.4786 29.4802 19.1477 29.4802 19.1477L29.2885 18.8067C29.2851 18.8016 28.9755 18.5091 28.9755 18.5091C28.9707 18.5057 28.5896 18.2863 28.5896 18.2863L28.2126 17.9717C28.2126 17.9686 28.1218 17.7801 28.0639 17.6544L28.3257 17.9075L28.8261 18.3467C28.8322 18.3505 29.2139 18.5213 29.2139 18.5213L29.5408 18.7863L29.9206 19.1749C29.9338 19.181 30.5273 19.2649 30.5273 19.2649L30.6015 19.2758L29.9988 18.7523C29.9988 18.7428 29.8627 18.3233 29.8627 18.3233C29.7584 18.2216 29.6532 18.1209 29.5469 18.0213L29.383 17.828C29.383 17.8229 29.2197 17.3239 29.2197 17.3239C29.1075 17.2068 28.9943 17.0905 28.8803 16.9751C28.8803 16.9723 28.3359 16.4631 28.3345 16.4611V16.4601C28.3345 16.4523 28.3152 16.3745 28.304 16.3232C28.3457 16.3443 28.4026 16.3745 28.4026 16.3745L28.9023 16.6663C28.907 16.6687 29.5019 16.8392 29.5019 16.8392L30.1225 16.9866L30.8396 17.1014L30.6709 16.7594C30.6591 16.7485 30.3024 16.6028 30.3024 16.6028L29.9714 16.4091C29.968 16.4081 29.5639 16.2369 29.5639 16.2369L29.2078 16.0908C29.2078 16.0875 28.9768 15.7885 28.8481 15.6234C28.9717 15.7067 29.1625 15.8368 29.1625 15.8368C29.1716 15.8398 29.4833 15.8646 29.4833 15.8646L30.4606 15.865C30.4606 15.8677 30.8563 16.0827 30.8563 16.0827C30.8563 16.0841 31.1937 16.4489 31.1937 16.4489L31.238 16.4968L31.197 16.0851C31.193 16.0732 30.9785 15.8045 30.9785 15.8045C30.9724 15.7997 30.3996 15.4825 30.3996 15.4825L29.9443 15.3106C29.9409 15.3096 29.2549 15.188 29.2515 15.188V15.1869C29.2515 15.1805 29.1204 15.0239 29.1204 15.0239C29.1177 15.0225 28.6184 14.5592 28.6184 14.5592C28.5377 14.5169 28.4567 14.4751 28.3755 14.4339C28.3755 14.4325 28.2993 14.354 28.2519 14.3044H28.5086C28.5086 14.3085 28.9023 14.5456 28.9023 14.5456C28.9057 14.548 29.4311 14.7178 29.4311 14.7178L30.1015 14.816H30.1008C30.1008 14.8231 30.3495 15.1024 30.3495 15.1024L30.7119 15.3255C30.8494 15.351 30.9871 15.3755 31.1249 15.3992L31.1825 15.4084L30.3342 14.3663C30.3288 14.3612 29.9233 14.1421 29.9233 14.1421C29.9199 14.14 29.4443 13.9936 29.4443 13.9936C29.4443 13.9885 29.0256 13.5123 29.0256 13.5123C29.0208 13.5072 28.4964 13.1909 28.4964 13.1909C28.3697 13.1588 28.2427 13.1277 28.1153 13.0979C28.1391 13.0595 28.218 12.9284 28.218 12.9284C28.2193 12.9321 28.638 12.7422 28.638 12.7422C28.638 12.7432 29.2519 12.622 29.2519 12.622C29.2685 12.6077 29.3149 12.4606 29.3149 12.4606C29.3071 12.4358 29.0449 12.2653 29.0449 12.2653C28.9403 12.2312 28.8355 12.1977 28.7305 12.1647C28.7112 12.1671 28.5452 12.2653 28.5452 12.2653C28.5452 12.2622 28.0317 12.2857 28.0317 12.2857L27.4178 12.1399C27.4178 12.1369 26.7854 11.6083 26.7854 11.6083C26.6886 11.5583 26.5916 11.5087 26.4944 11.4595C26.4873 11.4582 25.4425 11.3356 25.4398 11.3356C25.4398 11.3223 25.1942 10.9548 25.1942 10.9548L24.8582 10.5865C24.8568 10.5845 24.4303 10.1986 24.4303 10.1986L24.4171 10.2268L24.2741 10.5441C24.2748 10.541 24.1332 10.7605 24.1332 10.7605V10.7659C24.1332 10.8063 24.1532 11.0183 24.1532 11.0183C24.1593 11.0315 24.2975 11.1735 24.3006 11.1776C24.2935 11.1776 24.2484 11.3984 24.2484 11.4001C24.247 11.3848 23.6752 11.4083 23.6742 11.4083C23.6742 11.4055 23.207 11.1905 23.207 11.1905C23.204 11.1885 22.8459 11.0669 22.8459 11.0669C22.8388 11.0645 22.0058 11.0903 22.0058 11.0903C21.9875 11.0998 21.8462 11.3193 21.8462 11.3193L21.8273 11.3481L22.1938 11.4011C22.1938 11.4025 22.248 11.4371 22.2782 11.4565L22.1843 11.5333C22.1843 11.5285 21.6745 11.5051 21.6745 11.5051C21.666 11.5064 21.3073 11.6521 21.3073 11.6521L21.27 11.6681L21.4479 11.788C21.459 11.7921 22.2209 11.8162 22.2209 11.8162L22.7866 11.9623V11.963C22.7866 11.9708 22.8944 12.125 22.8944 12.125C22.8944 12.125 22.9709 12.2334 22.9997 12.2758L22.7575 12.4097C22.7606 12.4093 22.0692 12.7018 22.0692 12.7018L20.6399 13.5065C20.6386 13.5051 19.6988 13.6458 19.6988 13.6458C19.6917 13.6482 19.331 13.8496 19.331 13.8496C19.3232 13.855 19.0335 14.2576 19.0335 14.2576C19.0305 14.2626 18.8665 14.7637 18.8665 14.7637C18.8536 15.6149 18.8875 15.6346 18.8997 15.6414C18.9278 15.6591 19.1731 15.7984 19.3628 15.6965C19.5776 15.5793 20.0373 15.4641 20.2761 15.4132C20.394 15.3891 20.4492 15.4315 20.459 15.4753C20.4719 15.5232 20.4363 15.5884 20.3483 15.6126L20.2988 15.6272C19.8835 15.7403 19.4597 15.8772 19.4736 16.0379L19.5467 16.1605C19.732 16.296 20.2138 16.2318 20.4695 16.1737L20.7365 16.0987C20.9668 16.0283 21.2287 15.9499 21.4523 15.975C21.5813 15.99 21.6952 16.0457 21.8297 16.1092C22.0119 16.1975 22.2202 16.2977 22.5309 16.3181C23.0488 16.3541 23.4025 16.4591 23.4303 16.4896C23.4997 16.6313 23.455 16.8409 23.4201 17.0094L23.3934 17.1619C23.2484 18.4802 21.7805 19.9708 21.0732 20.6858C20.8821 20.8794 20.7558 21.0071 20.7287 21.0605L20.6474 21.249C20.5786 21.4239 20.5227 21.5748 20.2985 21.6651C20.1687 21.7157 19.8662 21.944 19.5152 22.2076C19.0085 22.5867 18.3801 23.0582 18.207 23.0378C17.9173 23.0035 16.5646 22.0697 16.5077 22.0123C15.1903 20.734 14.6391 20.9963 14.3092 21.1525L14.257 21.177C13.864 21.3563 13.4514 22.4726 13.4142 22.712L13.255 23.3996L13.1327 23.9047C13.0964 24.0756 12.9342 24.4954 12.7793 24.901L12.4616 25.7842C12.4091 25.9887 12.2817 26.276 12.178 26.5084L12.0375 26.8525C11.9396 27.2564 11.9379 29.4684 12.1083 29.6641L12.1157 29.6722L12.1492 29.6821C12.3203 29.6644 12.6875 29.285 12.8637 29.1019L12.9043 29.0595C13.0534 28.9093 13.2116 28.5085 13.2116 28.34C13.2116 28.1749 13.1347 27.8298 13.1042 27.7357C12.8657 27.0054 12.9558 26.3093 12.9992 25.9758L13.0165 25.827C13.029 25.6721 13.1838 25.5005 13.3342 25.3361L13.5243 25.1157C13.6286 24.9764 13.7445 24.9302 13.8478 24.8891L14.0175 24.792L14.0439 24.7644C14.1564 24.6513 14.3451 24.4604 14.4277 24.205L14.589 23.5056L14.6242 23.3187C14.6324 23.2814 14.6513 23.2606 14.6828 23.2538C14.7469 23.2396 14.8427 23.2905 14.8837 23.3452L16.0497 24.7019C16.3485 24.957 16.6554 25.2614 16.6554 25.3283L16.6551 25.3341C16.6551 25.3331 16.648 25.3344 16.648 25.3344C16.4847 25.3514 15.6632 25.1758 15.5267 25.1367C14.4105 24.8086 13.901 24.8663 13.508 25.3596C13.0602 25.9245 13.2011 27.6545 13.2926 27.844C13.3766 28.0159 13.7851 30.1237 13.8034 30.4046C13.8217 30.6801 13.9281 31.1727 14.0392 31.2858L14.0697 31.317C14.2072 31.4536 14.5697 31.8187 14.6337 32.1788C14.7028 32.5708 15.5331 33.6204 15.8499 33.7145C15.8736 33.7214 15.8986 33.7226 15.9229 33.7178C15.9472 33.7131 15.97 33.7027 15.9894 33.6874C16.231 33.5155 16.3407 32.6754 16.3539 32.3208C16.3695 31.8789 16.2113 31.6652 16.0433 31.4366L15.9789 31.3472C15.8553 31.1781 15.6375 31.1166 15.4938 31.0762C15.4325 31.0589 15.3485 31.0385 15.3485 31.0195C15.3485 31.013 15.3316 30.3656 15.1256 30.2405C14.9654 30.1417 14.8014 29.517 14.7821 29.2792C14.7635 29.0431 14.6723 28.4732 14.55 28.2228C14.4264 27.9714 14.3224 27.5081 14.3752 27.1507C14.3973 26.9972 14.5063 26.949 14.5951 26.935C14.7482 26.9106 14.925 26.9768 14.9525 27.0305C15.0135 27.1535 16.1907 27.8654 16.5877 28.0183C16.8343 28.1121 17.168 28.3947 17.4627 28.6467C17.6724 28.823 17.8526 28.9749 17.9651 29.0289C18.1168 29.1023 18.5471 29.1107 18.8926 29.1175C19.0759 29.1206 19.2663 29.125 19.292 29.1403C19.1518 29.1967 19.1534 29.4433 19.165 29.5228C19.3083 30.5429 23.0092 33.345 23.2955 33.5022C23.6268 33.6806 24.8151 34.9248 24.9191 35.094C25.0269 35.2611 25.1315 35.4429 25.1116 35.5828C25.0831 35.7897 25.1658 36.0261 25.3311 36.2191C25.4893 36.3987 25.6956 36.5071 25.8863 36.5071C26.0516 36.5071 26.1621 36.3583 26.2437 36.251L26.261 36.2286C26.4818 35.9354 26.8094 35.506 26.8518 34.8345C26.8968 34.1459 27.2105 33.8725 27.3128 33.8545C27.3586 33.846 27.3921 33.8599 27.4043 33.8902C27.4168 33.9214 27.4016 33.9737 27.3396 34.0148C27.2041 34.1069 27.1194 34.4116 27.0266 34.7373C27.0259 34.7401 26.992 35.0699 26.992 35.0699C26.9842 35.3162 26.9747 35.5954 26.7295 35.8661C26.3623 36.2649 25.9408 37.1844 25.8318 38.3455C25.7657 39.0449 26.0797 40.0524 26.7647 41.3365L26.8125 41.4282L26.9978 41.74C27.1851 42.042 27.4981 42.544 27.4836 42.6616C27.4636 42.8273 27.448 42.9574 27.1627 43.3165C26.8491 43.7112 25.7044 45.0469 25.5926 45.0679C25.365 45.0679 25.3267 45.0971 25.1434 45.2364L24.9503 45.3838C24.7389 45.5343 24.702 45.6471 24.6664 45.7466C24.6403 45.8217 24.6156 45.8873 24.5174 45.961L24.4439 46.0106C24.4286 46.0238 24.3873 46.0822 23.9273 46.5439C23.3998 47.0666 23.1644 47.6584 23.2457 48.2464C23.2718 48.4302 23.4296 48.4944 23.8978 48.5158C24.3653 48.5375 25.4371 47.7854 25.4849 47.5405L25.5015 47.4471C25.5425 47.2263 25.6112 46.854 25.7325 46.8003C25.8788 46.7361 26.1295 46.446 26.3135 46.2351L26.349 46.1953C26.447 46.0819 26.4707 45.9691 26.494 45.8618C26.514 45.7768 26.5323 45.6913 26.5879 45.6131C26.6316 45.5561 26.6956 45.5248 26.7698 45.4905C26.9121 45.4222 27.0913 45.3353 27.2203 45.0102C27.3487 44.6915 28.115 44.1402 28.6746 43.7391C28.9605 43.5353 29.1848 43.3722 29.2383 43.3005C29.3118 43.2044 29.3569 43.0193 29.3569 42.8229C29.3569 42.5899 29.2946 42.3419 29.1486 42.204C28.9362 42.0063 28.7363 41.418 28.6767 41.2335V41.2294C28.6767 41.153 28.6696 41.0131 28.658 40.7525C28.6567 40.7406 28.6567 40.7281 28.6567 40.7169C28.6567 40.0276 29.6784 39.3534 30.1194 39.0629L30.3207 38.9236C31.92 37.5092 32.233 36.4337 32.2923 36.1385L32.3248 35.7849C32.3346 35.54 32.3427 35.3067 32.4901 35.2761C32.5477 35.2649 32.6435 35.3114 32.7018 35.381C32.735 35.4187 32.7838 35.4972 32.7513 35.5879C32.6784 35.7863 32.654 37.7806 32.6534 37.8635C32.6588 37.8774 32.8255 38.0744 32.8255 38.0744L32.856 38.1101L32.8651 38.0636C32.8671 38.0405 32.9589 37.497 32.9589 37.3047C32.9589 37.0897 33.3038 36.1688 33.3871 36.1528C33.3871 36.1555 33.3925 36.1633 33.3925 36.1633C33.4329 36.2907 33.4843 36.6053 33.4843 36.9368C33.4843 37.2626 33.4352 37.605 33.2774 37.8034C33.0379 38.1006 32.8471 38.5711 32.7228 38.8815L32.6076 39.1455C32.5946 39.182 32.589 39.2208 32.591 39.2596C32.591 39.5123 32.7208 40.0511 32.8062 40.1513C32.8285 40.1751 32.8465 40.1751 32.859 40.1706C32.8868 40.1601 32.9118 40.1241 32.9118 39.9125C32.9118 39.1064 33.5873 38.5218 33.5955 38.5174C34.191 38.0435 34.3207 37.1647 34.3207 36.4952C34.3207 35.9884 34.2466 35.6015 34.2445 35.591C34.1504 35.4509 34.055 35.3116 33.9586 35.1732C33.9725 35.1799 34.0501 35.1161 34.0758 35.0954C34.1016 35.1287 34.3729 35.4894 34.3729 35.4894C34.4186 35.5536 34.5345 35.7408 34.5345 35.8152C34.5345 36.2299 34.5982 36.5139 34.6436 36.7221L34.6548 36.7714C34.7025 36.9922 35.0003 37.6977 35.0135 37.7279L35.0454 37.8023L35.0552 37.7215C35.0552 37.7181 35.1023 37.3492 35.0552 37.0336C35.0281 36.8566 35.062 36.6396 35.0962 36.4052L35.1504 35.8671C35.1504 35.43 35.088 35.1538 34.9325 34.9024L34.8533 34.7818C34.8221 34.7326 34.7916 34.6843 34.795 34.6745L34.8533 34.6494C36.1111 34.2213 36.6965 33.2926 36.935 32.7784C37.185 32.2335 37.1982 31.3945 37.1982 31.2331C37.1982 31.0228 37.189 29.9324 37.0064 29.3723C36.8994 29.0418 36.9336 28.6868 36.9695 28.3036L37.0085 27.6477C37.0085 27.199 37.2439 26.8657 37.4722 26.5437L37.7443 26.1212C37.9221 25.7692 37.8276 25.4611 37.7561 25.3732Z" fill="black"/>
<path fill-rule="evenodd" clip-rule="evenodd" d="M23.6769 11.3281C23.6979 11.3294 23.9652 11.2021 23.9652 11.2021C23.977 11.1779 23.915 10.9242 23.915 10.9242C23.7221 10.6948 23.5282 10.4661 23.3334 10.2384L23.3046 10.2047L23.2948 10.2469L23.2324 10.5217C23.2328 10.5189 23.0478 10.9626 23.0478 10.9626L23.0393 10.9813L23.4289 11.181L23.6769 11.3281Z" fill="black"/>
<path fill-rule="evenodd" clip-rule="evenodd" d="M23.7928 13.0887C23.8544 13.1118 23.9476 13.1016 24.0356 13.0622C24.1705 12.9987 24.2501 12.89 24.2159 12.8122L24.1539 12.7562C24.0929 12.7327 23.9997 12.7433 23.913 12.7834C23.7975 12.835 23.7237 12.9209 23.7237 12.994C23.7237 13.0072 23.7274 13.0215 23.7318 13.0327L23.7928 13.0887ZM26.1197 12.1257L26.2308 12.1858C26.2397 12.2051 26.2529 12.2222 26.2692 12.2357C26.2856 12.2492 26.3047 12.2589 26.3253 12.264C26.349 12.2689 26.3735 12.2685 26.397 12.2626C26.4204 12.2567 26.4423 12.2456 26.4608 12.23C26.4906 12.2066 26.4978 12.1627 26.4788 12.1074C26.449 12.0153 26.3531 11.9148 26.2498 11.9148C26.1167 11.9148 25.995 11.9301 25.995 12.0286C25.9954 12.0839 26.0587 12.105 26.1197 12.1257ZM26.2528 12.5194C26.2013 12.5575 26.1786 12.6088 26.1932 12.6607L26.2037 12.7039C26.2169 12.7548 26.2217 12.7654 26.2684 12.7708L26.3531 12.7861C26.4615 12.8139 26.6329 12.7463 26.6719 12.6594C26.6851 12.6312 26.6956 12.5765 26.6217 12.5249C26.4947 12.4399 26.3382 12.4583 26.2528 12.5194ZM26.5994 14.0314C26.5682 14.0164 26.5814 13.9668 26.6055 13.8948C26.6248 13.836 26.6424 13.7797 26.6123 13.7487C26.5858 13.7233 26.5387 13.7253 26.4588 13.7552C26.1709 13.8591 26.1268 14.1533 26.095 14.3683L26.0851 14.4346C26.0685 14.5304 26.1177 14.563 26.1482 14.5739C26.2474 14.6092 26.4266 14.5188 26.4669 14.4499C26.512 14.3755 26.7606 14.3075 26.9419 14.2579L27.0113 14.2389C27.0953 14.2158 27.1384 14.1835 27.1445 14.1397C27.1536 14.0823 27.0902 14.03 27.034 13.9964C26.9818 13.9655 26.9043 13.9875 26.823 14.011C26.7423 14.0331 26.6556 14.0558 26.5994 14.0314ZM23.556 14.1418C23.6197 14.1353 23.6695 14.1105 23.701 14.065C23.7928 13.9278 23.7975 13.7335 23.7084 13.5572C23.6224 13.389 23.475 13.2813 23.3246 13.2759L23.3266 13.2766L23.2938 13.2722L23.0167 13.2939C22.8703 13.3265 22.7345 13.4349 22.7016 13.5415C22.685 13.5955 22.6945 13.6448 22.7314 13.6818C22.9537 13.9179 23.3375 14.1584 23.556 14.1418ZM20.8273 13.9183C20.8605 14.0001 21.0126 14.0093 21.2358 13.9427L21.2849 13.9278L21.685 13.7708L22.2646 13.3887C22.2815 13.3754 22.433 13.2613 22.4018 13.1883C22.3798 13.1404 22.3042 13.1489 22.2497 13.1591C22.0898 13.1883 21.933 13.2654 21.766 13.3469L21.5302 13.4566L21.4262 13.4994C21.0674 13.6482 20.7734 13.7817 20.8273 13.9183ZM19.6084 14.3435C19.4878 14.3435 19.4336 14.4091 19.3896 14.4672L19.3357 14.5283C19.2429 14.6082 19.2144 14.8011 19.2259 14.9478C19.2307 15.009 19.248 15.1197 19.3079 15.1551C19.4228 15.2261 19.4776 15.1761 19.5948 15.0644L19.6856 14.9862C19.8008 14.8894 19.9346 14.7797 19.9512 14.6109C19.9594 14.5395 19.9424 14.4808 19.9028 14.4366C19.8323 14.3598 19.7036 14.3435 19.6084 14.3435ZM20.2751 14.3969C20.2405 14.3894 20.2199 14.4003 20.209 14.4115C20.1741 14.4458 20.1884 14.5192 20.1992 14.5779L20.206 14.619L20.1989 14.6438C20.1911 14.6649 20.1823 14.6917 20.1989 14.7145C20.2138 14.7372 20.25 14.7471 20.3117 14.7471C20.3899 14.7478 20.3977 14.7396 20.4241 14.6696L20.4451 14.6156C20.4641 14.5681 20.4644 14.5253 20.4465 14.4913C20.4143 14.4315 20.3344 14.4088 20.2751 14.3969ZM20.9197 15.4445C20.9606 15.4426 20.9993 15.4249 21.0275 15.3952C21.0558 15.3655 21.0716 15.3261 21.0716 15.285C21.0716 15.2439 21.0558 15.2044 21.0275 15.1747C20.9993 15.145 20.9606 15.1274 20.9197 15.1255C20.8991 15.1256 20.8786 15.1299 20.8596 15.138C20.8405 15.1461 20.8232 15.1578 20.8088 15.1726C20.7943 15.1875 20.7829 15.205 20.7752 15.2242C20.7675 15.2435 20.7636 15.2641 20.7639 15.2848C20.7639 15.3728 20.8334 15.4445 20.9197 15.4445ZM23.8239 15.0559C23.8015 15.0517 23.7785 15.0537 23.7571 15.0617C23.7358 15.0698 23.7171 15.0835 23.703 15.1014C23.66 15.1517 23.3981 15.3317 23.2067 15.4635L22.9597 15.6395L22.9398 15.6588C22.9089 15.688 22.8937 15.706 22.9137 15.7665L22.9438 15.809L23.0089 15.7957L23.1051 15.76L23.2436 15.7383C23.3802 15.7206 23.5295 15.7003 23.6 15.6279L23.6918 15.4774L23.8283 15.2576C23.8937 15.1853 23.8971 15.1357 23.8879 15.1075C23.8827 15.0941 23.874 15.0822 23.8628 15.0732C23.8515 15.0641 23.8381 15.0582 23.8239 15.0559ZM24.1109 15.9438C24.1109 16.025 24.1512 16.0569 24.1739 16.0681C24.2352 16.1007 24.3233 16.0692 24.3758 15.9958L24.5533 15.8409C24.6495 15.7716 24.7569 15.6935 24.8521 15.5722C24.9401 15.4584 24.9022 15.3884 24.8707 15.3585C24.8104 15.2994 24.6864 15.2858 24.6444 15.3205L24.5932 15.3555C24.4771 15.4312 24.202 15.6102 24.1329 15.828C24.1192 15.8651 24.1118 15.9042 24.1109 15.9438ZM25.2674 15.8562C25.2311 15.8032 25.1688 15.7811 25.1224 15.8039L24.9974 15.899C24.9093 15.971 24.7996 16.0624 24.7044 16.0892C24.4733 16.1514 24.16 16.255 24.1407 16.4139L24.1403 16.4347C24.1403 16.4785 24.16 16.5046 24.1789 16.5192C24.2667 16.5909 24.4798 16.5485 24.6339 16.49C24.8704 16.4024 25.014 16.2954 25.1996 16.1262C25.3138 16.0219 25.3087 15.9177 25.2674 15.8562ZM24.369 17.6871L24.2938 17.6786C24.0993 17.7306 23.7674 18.304 23.5343 18.7313L23.4926 18.8053L22.7941 20.1199L22.5749 20.5384C22.5505 20.5765 22.559 20.6322 22.5956 20.6685C22.6295 20.7025 22.6887 20.7212 22.7606 20.6757C22.8771 20.5979 23.3022 20.175 23.4994 19.8428L23.7619 19.4796C23.9303 19.2592 24.122 19.0126 24.2345 18.7187L24.2741 18.6175C24.5407 17.9242 24.5824 17.8182 24.369 17.6871ZM26.9957 15.1602C26.9758 15.1597 26.9561 15.1632 26.9375 15.1704C26.919 15.1776 26.902 15.1884 26.8877 15.2022C26.8733 15.216 26.8618 15.2325 26.8537 15.2507C26.8457 15.269 26.8414 15.2887 26.8409 15.3086C26.8409 15.3905 26.9104 15.457 26.9957 15.457C27.0811 15.457 27.1492 15.3905 27.1492 15.3086C27.1489 15.2887 27.1447 15.2691 27.1368 15.2509C27.1289 15.2327 27.1175 15.2162 27.1032 15.2024C27.089 15.1886 27.0721 15.1778 27.0537 15.1705C27.0352 15.1633 27.0155 15.1597 26.9957 15.1602ZM26.9222 15.7794C26.9222 15.8616 26.9917 15.9282 27.077 15.9282C27.0967 15.9284 27.1163 15.9247 27.1345 15.9174C27.1528 15.91 27.1695 15.8991 27.1835 15.8853C27.1976 15.8715 27.2088 15.855 27.2165 15.8368C27.2242 15.8187 27.2283 15.7991 27.2285 15.7794C27.228 15.7396 27.2118 15.7015 27.1834 15.6736C27.155 15.6457 27.1168 15.6303 27.077 15.6306C27.0369 15.63 26.9981 15.6452 26.9691 15.6731C26.9401 15.701 26.9233 15.7392 26.9222 15.7794ZM27.0645 16.1086C26.968 16.1086 26.888 16.1728 26.888 16.2495C26.888 16.3273 26.968 16.3908 27.0645 16.3908C27.1624 16.3908 27.2417 16.3277 27.2417 16.2495C27.242 16.1728 27.1624 16.1086 27.0645 16.1086ZM27.0574 16.5203C26.9463 16.5203 26.8575 16.5906 26.8575 16.6772C26.8575 16.7631 26.9463 16.8335 27.0574 16.8335C27.1685 16.8335 27.2559 16.7628 27.2559 16.6772C27.2559 16.5906 27.1685 16.5203 27.0574 16.5203ZM27.0645 17.0427C26.9422 17.0427 26.8409 17.1157 26.8409 17.2078C26.8409 17.2985 26.9422 17.3715 27.0645 17.3715C27.1875 17.3715 27.2867 17.2985 27.2867 17.2078C27.2867 17.1157 27.1875 17.0427 27.0645 17.0427ZM26.989 17.9184C27.1279 17.9062 27.2298 17.8298 27.222 17.7414L27.1783 17.6613C27.1306 17.6209 27.0472 17.6005 26.9625 17.6083C26.8284 17.6205 26.7291 17.6932 26.7291 17.7764L26.7298 17.7849L26.7749 17.8647C26.8236 17.9062 26.9033 17.9266 26.989 17.9184ZM26.9812 18.4684C27.1367 18.4453 27.2464 18.3597 27.2339 18.2714L27.1881 18.198C27.1339 18.1562 27.0367 18.1396 26.9375 18.1542C26.7847 18.1756 26.6722 18.2629 26.6848 18.3512L26.7318 18.4242C26.7867 18.4663 26.8819 18.4823 26.9812 18.4684ZM26.7193 18.7337C26.7193 18.8298 26.8358 18.9066 26.9886 18.9066C27.1407 18.9066 27.2559 18.8298 27.2559 18.7337C27.2559 18.6375 27.1407 18.5618 26.9886 18.5618C26.8355 18.5621 26.7193 18.6375 26.7193 18.7337ZM27.1956 19.2959C27.1956 19.1939 27.0567 19.1162 26.8792 19.1162C26.7037 19.1162 26.5648 19.1939 26.5648 19.2959C26.5648 19.3971 26.7037 19.4762 26.8792 19.4762C27.0567 19.4762 27.1956 19.3971 27.1956 19.2959ZM26.9937 19.7704C26.9937 19.6709 26.8897 19.5904 26.764 19.5904C26.6363 19.5904 26.5323 19.6709 26.5323 19.7704C26.5323 19.8699 26.6363 19.9508 26.764 19.9508C26.89 19.9508 26.9937 19.8699 26.9937 19.7704ZM26.8853 20.3638C26.8853 20.2521 26.7755 20.16 26.639 20.16C26.5042 20.16 26.3948 20.2521 26.3948 20.3638C26.3948 20.4766 26.5039 20.5673 26.639 20.5673C26.7755 20.5673 26.8853 20.4766 26.8853 20.3638ZM26.6854 20.9413C26.6854 20.8408 26.5953 20.7609 26.4856 20.7609C26.3765 20.7609 26.2843 20.8404 26.2843 20.9413C26.2843 21.0402 26.3761 21.121 26.4856 21.121C26.5953 21.1213 26.6854 21.0402 26.6854 20.9413ZM26.3392 21.283C26.2335 21.283 26.1461 21.3635 26.1461 21.4634C26.1461 21.5623 26.2335 21.6428 26.3392 21.6428C26.4446 21.6428 26.531 21.5619 26.531 21.4634C26.5313 21.3635 26.4446 21.283 26.3392 21.283ZM26.1759 22.1496C26.2843 22.1496 26.3765 22.0796 26.3765 21.993C26.3765 21.9064 26.2847 21.8374 26.1759 21.8374C26.0669 21.8374 25.9774 21.9067 25.9774 21.993C25.9774 22.0793 26.0669 22.1496 26.1759 22.1496ZM25.992 22.529C26.0926 22.529 26.1753 22.4702 26.1753 22.3962C26.1753 22.3225 26.094 22.264 25.992 22.264C25.8866 22.264 25.8067 22.3221 25.8067 22.3962C25.8067 22.4702 25.8893 22.529 25.992 22.529ZM25.8135 22.8938C25.9093 22.8938 25.9906 22.8344 25.9906 22.7607C25.9906 22.6876 25.9093 22.6282 25.8135 22.6282C25.7149 22.6282 25.637 22.6876 25.637 22.7607C25.6366 22.8344 25.7149 22.8938 25.8135 22.8938ZM20.5905 22.5708L20.6223 22.5769L20.8635 22.5334C21.0776 22.4859 21.4001 22.4135 21.7968 22.403C22.0868 22.3952 22.4011 22.4967 22.6295 22.5715C22.8368 22.6408 22.9401 22.6707 22.9794 22.6279C23.0041 22.5997 22.9889 22.5586 22.9753 22.5297C22.913 22.3948 22.64 21.9515 21.749 21.9312C21.1701 21.9179 20.6982 22.3126 20.5972 22.4794C20.5772 22.5134 20.5718 22.5385 20.582 22.5572L20.5905 22.5708ZM23.9035 24.2502C23.9601 24.2139 23.9845 24.1497 23.9808 24.0576C23.9618 23.6962 23.8653 23.6551 23.6664 23.6551C23.4648 23.6551 23.3192 23.8579 23.3192 23.9632C23.3192 24.062 23.3917 24.1486 23.5323 24.2193C23.6119 24.2614 23.7951 24.3215 23.9035 24.2502ZM26.637 28.6685C26.9243 28.803 27.0252 28.8509 27.0682 28.8642C27.0696 28.8642 27.0709 28.8683 27.0709 28.8683C27.0709 28.8683 27.073 28.8666 27.073 28.8659C27.093 28.872 27.0994 28.8696 27.1041 28.8628C27.1014 28.8608 27.0902 28.8438 27.0842 28.839C27.0875 28.8363 27.0909 28.8292 27.0909 28.8292C27.0909 28.8292 27.073 28.8217 27.0716 28.82C26.8816 28.5795 25.7372 26.948 25.4937 25.8743C25.4554 25.6973 25.4103 25.5325 25.2952 25.4666C25.2305 25.4303 25.1488 25.4276 25.0496 25.4608H25.0489C25.0258 25.4676 25.0092 25.4867 24.9987 25.5145C24.9889 25.5447 24.9847 25.5765 24.9862 25.6083C24.9862 25.9918 25.3937 27.0475 25.5269 27.2646C26.2633 28.4634 26.6231 28.6604 26.637 28.6685ZM35.9908 29.1349L35.9471 29.1434C35.9485 29.1502 35.9583 29.4705 35.9583 29.8819C35.9583 30.4818 35.9376 31.2817 35.834 31.6411C35.75 31.9322 35.3648 32.4897 35.0538 32.9357C35.0538 32.9357 34.692 33.4799 34.692 33.4805C34.6817 33.4987 34.6764 33.5194 34.6768 33.5403C34.6768 33.594 34.7039 33.6446 34.7516 33.6762C34.7879 33.7013 34.919 33.7659 35.1016 33.5475L35.3326 33.3025C35.6409 32.9941 36.024 32.6113 36.294 31.7661C36.5901 30.8384 35.9959 29.1509 35.9908 29.1349ZM26.3534 32.1575C26.3812 32.1853 26.4263 32.1931 26.4734 32.1761C26.5096 32.1636 26.5414 32.1407 26.565 32.1103C26.5885 32.0799 26.6027 32.0433 26.6058 32.0049C26.617 31.8888 26.6976 31.7328 26.8175 31.5997C26.88 31.5285 26.9126 31.4357 26.9083 31.3409C26.904 31.2462 26.8632 31.1568 26.7945 31.0915L26.6411 31.03C26.5425 31.0334 26.469 31.1126 26.4649 31.115C26.4135 31.3618 26.3632 31.6088 26.3141 31.8562V31.8555C26.2996 31.8966 26.2864 32.0929 26.3534 32.1575ZM31.3434 34.8933L31.3356 34.8899L31.3278 34.8933C31.3217 34.8981 31.193 34.9582 31.1564 35.0842C31.1313 35.1691 31.1781 35.2428 31.2147 35.3036L31.2577 35.3845L31.2763 35.5458L31.3054 35.7833C31.3127 35.8078 31.328 35.8292 31.3489 35.8439C31.3699 35.8586 31.3951 35.8657 31.4206 35.8641C31.4809 35.8621 31.551 35.8156 31.5741 35.7215C31.6052 35.5941 31.6205 35.4215 31.6205 35.1919C31.6198 34.9823 31.3552 34.896 31.3434 34.8933ZM23.5986 32.9615C23.5814 32.9415 21.7521 30.9509 21.3567 30.4295C20.9539 29.8951 20.7615 29.8547 20.5644 29.9641C20.5498 29.9724 20.5375 29.9842 20.5285 29.9983C20.5195 30.0124 20.514 30.0286 20.5125 30.0453C20.4841 30.2623 20.9411 30.7875 21.3412 31.173C21.9004 31.7128 23.5526 32.9815 23.5695 32.9941L23.5986 32.9615ZM16.4288 27.0866C16.0582 26.8559 15.4166 26.7279 15.4101 26.7252L15.3932 26.7642L16.1049 27.3023C16.2221 27.3988 16.7401 27.7211 16.9075 27.5893C16.9183 27.5811 16.927 27.5704 16.9328 27.5581C16.9385 27.5458 16.9413 27.5323 16.9407 27.5187C16.9352 27.4219 16.7557 27.2924 16.4288 27.0866ZM16.255 24.0413L16.3051 24.0199C16.3692 23.9475 16.2218 23.742 16.0426 23.5759C15.881 23.4265 15.7167 23.33 15.6307 23.3347L15.5819 23.3558C15.5714 23.3686 15.5661 23.3848 15.567 23.4013C15.567 23.4951 15.695 23.6608 15.8438 23.8001C16.0057 23.9496 16.1713 24.0467 16.255 24.0413ZM18.1568 23.7814L18.084 23.7858C17.9458 23.8439 17.7262 24.1962 17.5511 24.6422C17.4278 24.9571 17.3346 25.3005 17.3346 25.5074C17.3346 25.6056 17.3556 25.6721 17.4024 25.6918L17.4742 25.6874C17.6124 25.6283 17.8313 25.2754 18.0084 24.8307C18.1314 24.5152 18.2235 24.1717 18.2235 23.9645C18.2235 23.867 18.2036 23.8001 18.1568 23.7814ZM14.7333 21.6061C14.5548 21.6061 14.4125 21.691 14.4125 21.7983C14.4125 21.905 14.5548 21.9889 14.7333 21.9889C14.9145 21.9889 15.0555 21.905 15.0555 21.7983C15.0555 21.691 14.9145 21.6061 14.7333 21.6061ZM13.5947 23.9829L13.6503 23.9778C13.7468 23.9302 13.8928 23.667 14.0029 23.3385C14.1195 22.9889 14.1832 22.6136 14.0703 22.5735L14.0158 22.5793C13.9176 22.6279 13.7719 22.8904 13.6628 23.2186C13.5443 23.5684 13.4843 23.9438 13.5947 23.9829ZM13.8928 25.791C13.9877 25.6636 14.0067 25.5203 13.9362 25.4666L13.8542 25.449C13.7858 25.4578 13.7041 25.5155 13.6432 25.6008C13.5483 25.7282 13.5293 25.8712 13.5995 25.9238L13.6818 25.9432C13.7499 25.9327 13.8325 25.8756 13.8928 25.791ZM13.7838 27.7714L13.776 27.7667L13.7404 27.7629C13.6123 27.7928 13.7025 28.3519 13.7685 28.6461C13.8623 29.0568 13.9894 29.3883 14.0775 29.4434L14.0849 29.4488L14.1198 29.4525C14.2499 29.4226 14.1577 28.8608 14.092 28.5693C13.9989 28.1563 13.8732 27.8268 13.7838 27.7714ZM12.4938 28.5221C12.3904 28.5221 12.3071 28.5989 12.3071 28.6947C12.3071 28.7857 12.3904 28.8625 12.4938 28.8625C12.5964 28.8625 12.6824 28.7857 12.6824 28.6947C12.6828 28.5989 12.5967 28.5221 12.4938 28.5221ZM15.6632 32.5807C15.606 32.5804 15.5511 32.6028 15.5103 32.6429C15.4695 32.6831 15.4462 32.7377 15.4454 32.7951C15.4454 32.9105 15.5433 33.006 15.6632 33.006C15.7201 33.007 15.775 32.9854 15.8161 32.9458C15.8571 32.9063 15.8808 32.8521 15.882 32.7951C15.8812 32.7376 15.8578 32.6827 15.8167 32.6426C15.7757 32.6024 15.7205 32.5802 15.6632 32.5807ZM26.3778 38.2352C26.3846 38.2457 26.4043 38.281 26.4341 38.2776L26.4466 38.2769L26.4696 38.2423L26.6661 37.6417L26.8196 37.2416L26.9507 36.9372C26.991 36.835 26.991 36.7667 26.9514 36.7269C26.8883 36.6692 26.7583 36.7184 26.7423 36.7242C26.7318 36.7327 26.3731 37.3333 26.3731 37.3333C26.303 37.4406 26.2765 37.5853 26.2765 37.7341C26.2765 37.9461 26.3294 38.1577 26.3778 38.2352ZM27.2742 41.2353L27.2813 41.1748C27.2861 41.1391 27.3938 40.3039 27.1377 39.9812C27.1115 39.9462 27.0784 39.9171 27.0403 39.8957C27.0023 39.8744 26.9602 39.8612 26.9168 39.8572C26.8399 39.85 26.7871 39.8725 26.7579 39.921C26.6018 40.1772 27.2146 41.1419 27.2417 41.1836L27.2742 41.2353ZM28.7088 42.8243C28.6796 42.824 28.6506 42.8294 28.6234 42.8403C28.5963 42.8512 28.5716 42.8674 28.5507 42.8879C28.5298 42.9084 28.5131 42.9329 28.5017 42.9599C28.4902 42.9868 28.4842 43.0158 28.4839 43.0451C28.4839 43.1691 28.5845 43.2653 28.7088 43.2653C28.7672 43.2653 28.8231 43.242 28.8643 43.2007C28.9055 43.1593 28.9287 43.1033 28.9287 43.0448C28.9287 42.9863 28.9055 42.9303 28.8643 42.8889C28.8231 42.8476 28.7672 42.8243 28.7088 42.8243ZM25.3311 40.134C25.2257 40.134 25.1359 40.2162 25.1359 40.3178C25.1359 40.4221 25.2261 40.5022 25.3311 40.5022C25.4388 40.5022 25.5255 40.4221 25.5255 40.3178C25.5255 40.2162 25.4388 40.134 25.3311 40.134ZM27.7925 43.3916L27.7688 43.3862C27.6522 43.3862 27.2112 43.7731 26.8352 44.159C26.802 44.1943 25.9856 45.034 26.0936 45.1434L26.0997 45.1502L26.1261 45.1556C26.244 45.1556 26.6844 44.7674 27.0584 44.3835C27.0936 44.3478 27.9114 43.5112 27.7999 43.3977L27.7925 43.3916ZM25.3409 45.6617C25.2728 45.6617 25.1661 45.7256 25.0709 45.8211C24.9571 45.9352 24.8744 46.0932 24.9354 46.158L24.9957 46.1798C25.0651 46.1798 25.1722 46.1173 25.267 46.0198C25.3782 45.9043 25.4635 45.7497 25.4002 45.6842L25.3409 45.6617ZM24.2653 47.2158C24.1817 47.2158 24.0634 47.2848 23.9601 47.3897C23.852 47.4984 23.79 47.6187 23.79 47.7023C23.79 47.7342 23.7985 47.76 23.8185 47.778L23.8947 47.8072C23.977 47.8072 24.0987 47.7403 24.1999 47.6347C24.35 47.4808 24.4103 47.316 24.3422 47.2447L24.2653 47.2158ZM18.6423 39.3884C18.481 39.3884 18.3499 39.4804 18.3499 39.5966C18.3499 39.7121 18.4813 39.8011 18.6423 39.8011C18.8049 39.8011 18.9346 39.7121 18.9346 39.5966C18.9349 39.4804 18.8049 39.3884 18.6423 39.3884ZM21.0237 39.5555C20.9092 39.5555 20.8201 39.6173 20.8201 39.6989C20.8201 39.7753 20.9092 39.8381 21.0237 39.8381C21.1342 39.8381 21.2256 39.775 21.2256 39.6989C21.2256 39.619 21.1342 39.5555 21.0237 39.5555ZM23.9303 40.5308L23.9479 40.5036C23.9808 40.3664 23.2951 40.152 22.9286 40.0589C22.4885 39.9462 21.9655 39.8558 21.85 39.9254L21.8418 39.9309L21.8232 39.9594C21.79 40.098 22.4753 40.3096 22.8425 40.4058C23.2822 40.5165 23.8053 40.6041 23.9225 40.5352L23.9303 40.5308Z" fill="#EEEEF0"/>
</svg>
