<svg width="32" height="33" viewBox="0 0 32 33" fill="none" xmlns="http://www.w3.org/2000/svg">
<g clip-path="url(#clip0_71_521)">
<path d="M20 16.5C20 17.2911 19.7654 18.0645 19.3259 18.7223C18.8864 19.3801 18.2616 19.8928 17.5307 20.1955C16.7998 20.4983 15.9956 20.5775 15.2196 20.4231C14.4437 20.2688 13.731 19.8878 13.1716 19.3284C12.6122 18.769 12.2312 18.0563 12.0769 17.2804C11.9225 16.5044 12.0017 15.7002 12.3045 14.9693C12.6072 14.2384 13.1199 13.6136 13.7777 13.1741C14.4355 12.7346 15.2089 12.5 16 12.5C17.0609 12.5 18.0783 12.9214 18.8284 13.6716C19.5786 14.4217 20 15.4391 20 16.5ZM29 10.5V22.5C28.998 24.3559 28.2599 26.1352 26.9476 27.4476C25.6352 28.7599 23.8559 29.498 22 29.5H10C8.14409 29.498 6.36477 28.7599 5.05245 27.4476C3.74012 26.1352 3.00199 24.3559 3 22.5V10.5C3.00199 8.64409 3.74012 6.86477 5.05245 5.55245C6.36477 4.24012 8.14409 3.50199 10 3.5H22C23.8559 3.50199 25.6352 4.24012 26.9476 5.55245C28.2599 6.86477 28.998 8.64409 29 10.5ZM22 16.5C22 15.3133 21.6481 14.1533 20.9888 13.1666C20.3295 12.1799 19.3925 11.4108 18.2961 10.9567C17.1997 10.5026 15.9933 10.3838 14.8295 10.6153C13.6656 10.8468 12.5965 11.4182 11.7574 12.2574C10.9182 13.0965 10.3468 14.1656 10.1153 15.3295C9.88378 16.4933 10.0026 17.6997 10.4567 18.7961C10.9108 19.8925 11.6799 20.8295 12.6666 21.4888C13.6533 22.1481 14.8133 22.5 16 22.5C17.5908 22.4983 19.116 21.8657 20.2408 20.7408C21.3657 19.616 21.9983 18.0908 22 16.5ZM25 9C25 8.70333 24.912 8.41332 24.7472 8.16664C24.5824 7.91997 24.3481 7.72771 24.074 7.61418C23.7999 7.50065 23.4983 7.47094 23.2074 7.52882C22.9164 7.5867 22.6491 7.72956 22.4393 7.93934C22.2296 8.14912 22.0867 8.41639 22.0288 8.70736C21.9709 8.99834 22.0007 9.29994 22.1142 9.57403C22.2277 9.84811 22.42 10.0824 22.6666 10.2472C22.9133 10.412 23.2033 10.5 23.5 10.5C23.8978 10.5 24.2794 10.342 24.5607 10.0607C24.842 9.77936 25 9.39782 25 9Z" fill="black"/>
</g>
<defs>
<clipPath id="clip0_71_521">
<rect width="32" height="32" fill="white" transform="translate(0 0.5)"/>
</clipPath>
</defs>
</svg>
