<svg width="65" height="64" viewBox="0 0 65 64" fill="none" xmlns="http://www.w3.org/2000/svg">
<path d="M31.0279 2.56006C24.1229 2.56006 17.4179 3.53006 12.8479 4.96506C6.71787 6.89506 5.44287 7.73006 5.44287 11.9301C5.44287 34.0001 14.1329 46.2701 21.8179 53.6251C25.8629 57.5001 29.6079 60.3051 31.0279 60.3051C32.4479 60.3051 36.1879 57.5001 40.2329 53.6251C47.9229 46.2701 56.6129 34.0001 56.6129 11.9301C56.6129 7.73006 55.3379 6.89506 49.2079 4.96506C44.6379 3.53006 37.9329 2.56006 31.0279 2.56006ZM31.0279 5.12006C37.3779 5.12006 43.8879 5.97506 48.4379 7.40506C54.0529 9.17006 54.0529 9.38006 54.0529 11.9301C54.0529 28.7001 48.9529 41.7351 38.4629 51.7801C34.6379 55.4401 32.0179 57.2601 31.0279 57.6851C30.0429 57.2601 27.4179 55.4401 23.5929 51.7801C13.1029 41.7351 8.00287 28.7001 8.00287 11.9301C8.00287 9.38006 8.00287 9.17006 13.6129 7.40506C18.1679 5.97506 24.6779 5.12006 31.0279 5.12006ZM28.9929 9.37506C28.0629 9.37506 27.3079 10.2801 27.3079 12.1701C27.3079 14.3801 28.0629 14.9651 28.9929 14.9651C29.9279 14.9651 30.6829 14.0401 30.6829 12.1701C30.6829 10.3051 29.9279 9.37506 28.9929 9.37506ZM31.2679 9.43006V14.8751H32.2329C32.2329 14.8901 32.2479 12.6201 32.2479 12.6201H32.6179L33.4479 14.9201L34.5129 14.9651L33.6529 12.4601C33.6529 12.4601 34.4379 12.1751 34.4379 11.0201C34.4379 9.86506 33.5079 9.52506 33.1529 9.51006C32.7929 9.49006 31.2679 9.43006 31.2679 9.43006ZM36.4179 9.53006C35.3229 9.53006 34.8129 10.5851 34.8129 12.1401C34.8129 13.7001 35.2029 15.1601 36.6379 15.1601C38.0729 15.1601 38.0729 13.8451 38.0729 13.5851V12.3201L36.5279 12.1901V13.1351L37.0779 13.1751C37.0779 13.1751 37.0879 13.3701 37.0879 13.4851C37.0879 13.6051 37.0829 14.1951 36.5829 14.1951C35.9929 14.1951 35.7829 13.2201 35.7829 12.2501C35.7829 11.2851 36.0779 10.5151 36.5129 10.5151C36.9429 10.5151 37.0879 11.3701 37.0879 11.3701L38.0829 11.1951C38.0829 11.1951 37.9579 9.53006 36.4179 9.53006ZM25.4179 9.66506C24.7479 9.70006 23.7529 9.80006 23.7529 9.80006V15.2251C23.7529 15.2251 25.3329 15.1001 25.5179 15.0801C25.7079 15.0601 26.8529 14.8351 26.8529 13.2751C26.8479 13.2751 26.8629 12.4301 26.2529 12.1501C26.5129 11.9551 26.7679 11.7251 26.7679 10.9851C26.7679 10.2451 26.2129 9.62506 25.4179 9.66506ZM38.7979 9.86006V15.2951L39.7479 15.4401L39.7679 13.0501L41.0079 13.2151L40.9879 15.5851L42.0129 15.7651V10.3701L41.0079 10.1701V12.2501L39.7879 12.0651V10.0051L38.7979 9.86006ZM22.9729 9.87006L21.9779 9.99506L21.0929 13.2801L20.1729 10.2751L19.2079 10.4901C19.2029 10.4901 19.2029 15.9201 19.2129 15.9051L20.1229 15.7401L20.0579 12.7301L21.0529 16.0151L22.0629 12.7801L21.9929 15.4451L22.9729 15.3401V9.87006ZM28.9929 10.3601C29.3929 10.3601 29.7129 10.9701 29.7129 12.2001C29.7129 13.4301 29.3929 14.0401 28.9929 14.0401C28.5979 14.0401 28.2729 13.6551 28.2729 12.2001C28.2729 10.9551 28.5979 10.3601 28.9929 10.3601ZM32.2329 10.4101H32.8079C33.0579 10.4101 33.4729 10.5601 33.4729 10.9901C33.4729 11.4251 33.2529 11.7201 32.9429 11.7201H32.2329V10.4101ZM42.7829 10.5301V15.9201L43.7979 16.1151V10.7201L42.7829 10.5301ZM25.1979 10.6101C25.2779 10.6051 25.7779 10.6001 25.7779 11.0601C25.7779 11.5151 25.4729 11.7601 25.2479 11.7801C25.0229 11.8001 24.7279 11.8001 24.7279 11.8001L24.7329 10.6301C24.7329 10.6301 25.1179 10.6101 25.1979 10.6101ZM17.4079 10.8701L16.4779 11.1001L15.1579 16.9001L16.1979 16.5901L16.4929 15.1551L17.4379 14.8851L17.7579 16.2451L18.7929 15.9851L17.4079 10.8701ZM44.6179 10.8801V16.2801L45.5629 16.5651V13.2101L46.9879 16.9451L47.8079 17.2601V11.7851L46.8229 11.4601V14.3601L45.5329 11.1001L44.6179 10.8801ZM13.3779 12.0301L12.3829 12.4101V17.9051L15.0279 16.9601V15.9851L13.3779 16.6001V12.0301ZM48.6179 12.0901V17.5201L49.6029 17.9201V12.4301L48.6179 12.0901ZM16.9529 12.4901L17.2879 14.0801L16.6479 14.2251L16.9529 12.4901ZM25.3129 12.7401C25.4079 12.7401 25.8679 12.8101 25.8679 13.3201C25.8679 13.8251 25.5829 14.0701 25.3529 14.1151C25.1279 14.1551 24.7479 14.1601 24.7479 14.1601V12.7701C24.7479 12.7701 25.2229 12.7401 25.3129 12.7401ZM33.2579 16.6401C33.1079 16.6451 32.9229 16.6651 32.6929 16.7051C32.2279 16.8051 31.9479 16.8301 31.6929 16.8451C31.4579 16.8601 31.2429 16.8701 30.9729 16.9201C30.6829 16.9601 30.2829 16.9701 29.9529 17.1151C29.6179 17.2551 29.3379 17.4851 29.3229 17.9851C29.2829 18.4701 29.4229 18.9051 29.8879 19.2401C30.3729 19.5601 31.1679 19.7901 32.4879 19.8551C33.7929 19.9301 35.2229 19.9701 36.4029 20.1101C37.5829 20.2501 38.4879 20.4551 38.7829 20.8501C39.0779 21.2351 39.1529 21.4901 39.0929 21.6801C39.0279 21.8851 38.8329 22.0301 38.5929 22.2201C38.3979 22.2051 38.0529 22.2101 37.6329 22.1451C37.2229 22.0951 36.7479 21.9801 36.3279 21.7601C35.9279 21.5401 35.4179 21.3901 34.9179 21.3501C34.4179 21.3251 33.8929 21.3751 33.4579 21.5951C33.0079 21.7951 31.9329 22.2351 30.8179 22.9601C29.6929 23.6801 28.5279 24.6801 27.9129 26.0201C27.3029 27.3651 26.9929 28.2251 26.8029 28.8251C26.6129 29.4151 26.5329 29.7501 26.4079 30.0551C26.2779 30.3601 26.0729 30.6701 25.8929 31.0251C25.7129 31.3751 25.5629 31.7701 25.5229 32.2301C25.5079 32.6801 25.4429 33.2151 25.3429 33.7251C25.2679 34.2401 25.1479 34.7251 25.0479 35.1001C24.9329 35.4551 24.8179 35.8901 24.6929 36.3651C24.5729 36.8401 24.4729 37.3651 24.4479 37.9401C24.4179 38.5051 24.3579 39.0751 24.2429 39.6151C24.1529 40.0251 24.0379 40.3951 23.9079 40.7401C23.8579 40.8601 23.8179 40.9601 23.7779 41.0501C23.7529 41.1151 23.7179 41.1801 23.7029 41.2401C23.5629 41.5901 23.4979 41.9101 23.4229 42.1901C23.3579 42.5351 23.2529 42.8801 23.0529 43.2001C22.8179 43.5351 22.5279 43.9551 22.2579 44.3401C21.9629 44.7351 21.6679 45.1051 21.4529 45.3601C21.3979 45.4151 21.3629 45.4901 21.3129 45.5551C21.2229 45.7351 21.1579 45.9151 21.1579 46.0801C21.1579 46.1051 21.1729 46.1301 21.1729 46.1601C21.2229 46.4151 21.4279 46.6301 21.8479 46.6951C22.2679 46.7851 22.6429 46.7051 22.9329 46.5551C23.2179 46.4001 23.4079 46.1451 23.4879 45.8501C23.5479 45.5801 23.5779 45.1851 23.6279 44.7751C23.6679 44.3551 23.7179 43.9551 23.8829 43.6451L24.2029 42.9701C24.3579 42.7501 24.4629 42.6601 24.5629 42.6101C24.6779 42.5351 24.7679 42.4851 24.9179 42.3201C25.0629 42.1501 25.3179 41.7051 25.5329 41.1651C25.7679 40.6551 25.9429 40.0751 25.9579 39.6651C25.9829 39.2851 26.0479 38.9501 26.1229 38.7051C26.2129 38.4401 26.3279 38.2351 26.4529 38.0301C26.5729 37.8401 26.6479 37.6051 26.7729 37.4401C26.8779 37.2751 27.0329 37.1601 27.2879 37.2101C27.5429 37.2501 27.6079 37.3901 27.6179 37.5551C27.6579 37.7201 27.6229 37.9251 27.6979 38.0951C27.7729 38.2701 27.8479 38.4501 27.9679 38.6301C28.0829 38.7951 28.2229 38.9501 28.4529 39.0551C28.6729 39.1401 28.8629 39.3251 28.9379 39.5251C29.0279 39.7451 29.0179 39.9601 28.8629 40.1551C28.7079 40.3551 28.4929 40.6901 28.3129 41.0251C28.1329 41.3851 27.9779 41.7251 27.9779 41.9451C27.9679 42.1751 27.9779 42.5201 27.9029 42.8801C27.8629 43.1351 27.7729 43.4151 27.6079 43.6601L27.4129 43.8651C27.1229 44.1451 26.8779 44.4301 26.6979 44.6601C26.5329 44.9051 26.4329 45.1051 26.4329 45.2451C26.4179 45.4001 26.4829 45.5951 26.6229 45.7451C26.7629 45.9151 26.9929 46.0401 27.3779 46.0551C27.7379 46.0701 28.0279 46.0051 28.2579 45.8851C28.4629 45.7601 28.6229 45.5551 28.7229 45.3151C28.8129 45.0551 28.8129 44.8751 28.7879 44.7101C28.7579 44.5451 28.7079 44.4001 28.7229 44.2101C28.7379 44.0451 28.7879 43.8501 28.8729 43.6451C28.9379 43.4451 29.0279 43.2401 29.0679 43.0451C29.0929 42.8301 29.1579 42.6001 29.2579 42.3301C29.3629 42.0601 29.5279 41.7651 29.7729 41.4601C30.0029 41.1651 30.1529 40.8951 30.2729 40.6651C30.3979 40.4201 30.4729 40.2051 30.6279 40.0251C30.7829 39.8201 30.8579 39.7301 30.9129 39.6951C30.9729 39.6651 31.0229 39.7301 31.1679 39.8051C31.3079 39.9101 31.3229 39.9901 31.2929 40.0901C31.2679 40.1901 31.1679 40.2951 31.0779 40.4351C30.9879 40.5751 30.8079 40.8201 30.6029 41.0501C30.4229 41.3051 30.2179 41.5751 30.1029 41.7651C30.0129 41.8951 29.9629 42.0501 29.9379 42.2001C29.9229 42.2001 29.9279 42.2001 29.9279 42.2251C29.9129 42.2901 29.9129 42.3401 29.9129 42.3951V42.4351C29.9379 42.6501 30.0779 42.8301 30.3879 42.8801C30.7079 42.9201 30.9379 42.9301 31.1129 42.8951C31.2929 42.8401 31.3829 42.7501 31.4329 42.5851C31.4629 42.4051 31.5279 42.1401 31.6279 41.8701C31.7279 41.6001 31.8329 41.3301 31.9479 41.1651C32.0779 41.0001 32.1629 40.8451 32.2029 40.7201C32.2529 40.5751 32.2679 40.4601 32.2779 40.3851C32.4329 40.5651 32.5729 40.7801 32.6929 40.9851C32.8079 41.1901 32.8829 41.4201 32.9579 41.6151C33.0329 41.8301 33.2279 42.0701 33.5729 42.2901C33.9179 42.4801 34.4329 42.6351 35.1329 42.6501C35.8529 42.6501 36.2229 42.6351 36.4129 42.5851C36.6179 42.5201 36.6729 42.4301 36.7579 42.2551C36.8629 42.0851 37.0679 41.7651 37.1929 41.4201C37.3129 41.0601 37.3229 40.7201 37.0129 40.5001C37.0929 40.2201 37.1929 39.8351 37.3329 39.4751C37.4879 39.0901 37.6679 38.7451 37.9279 38.5401C38.1679 38.3101 38.4879 38.1051 38.7729 37.9001C39.0529 37.7101 39.3079 37.5451 39.4129 37.4001C39.7579 37.6351 40.0879 37.8901 40.3329 38.2601C40.5729 38.6301 40.7279 39.0901 40.7279 39.7451C40.6879 40.0801 40.7279 40.3951 40.7679 40.6801C40.8029 40.9601 40.8429 41.2051 40.8679 41.3801C40.8929 41.5501 40.8829 41.7401 40.8679 41.9201C40.8679 42.1101 40.8429 42.3201 40.8679 42.5201C40.8929 42.7251 40.9979 42.9201 41.1729 43.0601C41.3279 43.2001 41.5229 43.2651 41.6879 43.2501C41.8529 43.2351 42.0179 43.0851 42.1479 42.8951C42.2779 42.6901 42.3529 42.4551 42.3779 42.2551C42.3779 42.0501 42.3279 41.9101 42.2629 41.7801C42.1729 41.6801 42.0829 41.5751 42.0079 41.4851C41.9329 41.4101 41.8679 41.3201 41.8529 41.2301C41.8529 41.1151 41.8829 40.9751 41.9829 40.7401C42.0829 40.5251 42.0829 40.3051 42.0179 40.1401C41.9829 39.9751 41.8779 39.8451 41.8029 39.7601C41.7129 39.6701 41.6379 39.4251 41.5729 39.0901C41.5229 38.7851 41.4979 38.4001 41.5479 38.0151C41.5879 37.6551 41.5729 37.2201 41.4929 36.8401C41.4079 36.4651 41.2679 36.1451 41.0479 35.9951C41.7029 35.9951 42.4579 35.9951 43.1329 35.8401C43.8129 35.6851 44.4129 35.3901 44.7979 34.8001C44.4129 34.7501 43.9929 34.7501 43.4929 34.5751C42.9829 34.3951 42.4029 34.0201 41.7279 33.2151C41.8029 32.8701 41.8279 32.6401 41.8129 32.4451C41.8029 32.2551 41.7379 32.1051 41.6729 31.8851C41.5979 31.6951 41.4979 31.5001 41.4329 31.1951C41.3829 30.8851 41.3679 30.4801 41.4929 29.8251C41.5979 29.1601 41.6529 28.1101 41.4329 26.9301C41.2279 25.7651 40.7779 24.4751 39.9079 23.3751C40.2129 22.6151 40.3829 22.0951 40.4479 21.6601C40.4979 21.2351 40.4479 20.9001 40.2929 20.5301C40.1379 20.1451 39.6929 19.8001 39.0279 19.5451C38.3729 19.2901 37.4879 19.1251 36.4679 19.0751C35.4279 19.0351 33.9679 19.0051 32.7679 18.9051C31.5379 18.8051 30.5879 18.6351 30.6129 18.3301C30.6279 18.0101 30.8079 17.8801 31.0379 17.8201C31.2679 17.7551 31.5629 17.7651 31.7779 17.7551C32.1129 17.9051 32.6129 18.0251 33.1129 18.1151C33.6129 18.1751 34.1329 18.2151 34.5729 18.2251C34.9779 18.2651 35.3879 18.1601 35.8279 18.0601C36.2479 17.9851 36.6979 17.8801 37.2079 17.9051C36.7879 17.7401 36.2629 17.5101 35.7129 17.3201C35.1729 17.1251 34.5979 17.0001 34.1129 17.0751C33.9429 16.8851 33.8279 16.7551 33.6229 16.6801C33.5279 16.6501 33.4079 16.6401 33.2579 16.6401ZM33.9429 22.5651C34.2879 22.5951 34.6229 22.8101 34.9179 23.0401C35.1979 23.2851 35.4179 23.5401 35.5179 23.6801C35.6329 23.8201 35.7129 24.1251 35.7979 24.4601C35.8879 24.7801 35.9779 25.1251 36.1079 25.3451C36.2229 25.5501 36.3129 25.8551 36.3879 26.2251C36.4529 26.5851 36.5279 26.9951 36.5679 27.3951C36.6179 27.8001 36.7579 28.0951 36.8979 28.3401C37.0529 28.5851 37.2229 28.7901 37.3229 28.9801C37.4229 29.1851 37.5129 29.6851 37.6529 30.2051C37.7829 30.7601 37.9379 31.3501 38.1679 31.7451C38.3879 32.1651 38.7679 32.4501 39.1279 32.6401C39.4979 32.8451 39.8579 32.9501 40.0379 33.0251C40.2179 33.0751 40.3429 33.1001 40.4879 33.1901C40.6129 33.2801 40.7529 33.3951 40.9579 33.6901C41.2529 34.0851 41.7129 34.4201 42.1479 34.6751C42.5679 34.9301 42.9829 35.1001 43.1579 35.1601C42.5729 35.3401 41.8929 35.3001 41.3329 35.1351C40.7429 34.9701 40.2429 34.6851 40.0379 34.3651C39.9079 34.2001 39.7429 34.0351 39.5529 33.9051C39.3729 33.7651 39.1529 33.6651 38.9629 33.6001C38.7729 33.5251 38.4379 33.3701 38.1179 33.2151C37.7979 33.0501 37.4779 32.8851 37.2879 32.7651C37.2329 32.8551 37.1329 32.9701 36.9779 33.0851C36.8379 33.2301 36.6329 33.3851 36.4129 33.5501C36.1829 33.7401 36.1329 33.8801 36.1479 34.0001C36.1579 34.1251 36.2329 34.2401 36.2879 34.3301C36.3379 34.4201 36.5929 34.6601 36.8529 34.8951C37.1179 35.1501 37.3779 35.4051 37.4779 35.5201C37.1429 35.4801 36.9279 35.4551 36.6829 35.3551C36.4129 35.2501 36.1179 35.0751 35.6479 34.7251C35.1479 34.3801 35.0329 34.0501 35.0329 33.7651C35.0479 33.4751 35.1979 33.2551 35.2879 33.1651C35.3779 33.0651 35.5579 32.9201 35.7629 32.7801C35.9429 32.6501 36.1229 32.5401 36.1979 32.4851C36.2979 32.4351 36.3379 32.3451 36.3379 32.2951C36.3229 32.2451 36.2729 32.1801 36.1579 32.1951C35.3279 32.2701 34.7229 32.4601 34.3129 32.6901C33.9179 32.9101 33.7279 33.1551 33.7129 33.3451C33.6879 33.5251 33.7029 33.6901 33.7679 33.8701C33.8429 34.0251 33.9429 34.1901 34.1229 34.3651C34.2779 34.5451 34.3279 34.7501 34.3129 34.9701C34.3029 35.1601 34.2029 35.3401 34.0879 35.4551C33.9679 35.5551 33.9179 35.6101 33.8679 35.7001C33.8279 35.7751 33.7879 35.8901 33.7129 36.1351C33.6229 36.3551 33.5579 36.7851 33.4929 37.2451C33.4429 37.7101 33.4079 38.1951 33.4179 38.5551C33.5479 38.3751 33.7129 38.2301 33.8929 38.1301C34.0579 38.0301 34.2379 37.9801 34.3679 37.9401C34.3929 38.8101 34.3179 39.4351 34.1979 39.9001C34.1129 40.3451 33.9679 40.6401 33.8779 40.8601C33.8679 40.9451 33.8279 40.9751 33.7679 40.9601C33.7279 40.9451 33.6879 40.8951 33.6729 40.8351C33.6229 40.6001 33.5329 40.2951 33.4079 39.9851C33.2779 39.6951 33.1379 39.4251 32.9829 39.2601C32.5729 38.8101 32.3929 38.5801 32.3329 38.4001C32.2429 38.1951 32.2679 38.0551 32.2779 37.8101C31.6129 37.4151 31.4329 36.9801 31.4479 36.5951C31.4729 36.2101 31.7179 35.8551 31.9079 35.6001C32.0979 35.3551 32.2679 35.0451 32.3929 34.7801C32.5129 34.5101 32.5879 34.2401 32.6129 34.0851C32.6379 33.9351 32.5729 33.6351 32.4729 33.3301C32.3729 33.0251 32.2029 32.6901 32.0379 32.4451C31.9879 32.4351 31.8829 32.3951 31.7529 32.4101C31.6129 32.4251 31.4729 32.4851 31.3579 32.6901C31.2429 32.8801 31.1279 32.9851 30.9979 33.0251C30.8579 33.0651 30.7179 33.0651 30.5779 33.0501C30.4379 33.0251 30.2579 33.0001 30.1029 33.0251C29.9379 33.0401 29.7729 33.1001 29.6529 33.2551C29.5279 33.4201 29.3879 33.4201 29.2479 33.3601C29.1029 33.3051 28.9629 33.1901 28.8629 33.1401C28.7479 33.0651 28.6829 33.0001 28.6079 32.9451C28.5179 32.8951 28.3879 32.8701 28.1579 32.8701C27.9029 32.8701 27.8129 33.0351 27.7129 33.2151C27.6229 33.3951 27.5329 33.5851 27.3129 33.6251C27.0929 33.6751 26.9529 33.5501 26.8779 33.3301C26.8129 33.1001 26.8029 32.7801 26.8279 32.4351C26.8029 31.9851 26.9929 31.3201 27.2529 30.6951C27.5079 30.0701 27.7879 29.4901 27.9279 29.2201C28.0679 28.9401 28.2979 28.3901 28.5329 27.7751C28.7729 27.1751 29.0179 26.5201 29.1829 26.0001C29.3479 25.5001 29.6829 25.1151 30.0679 24.7801C30.4479 24.4451 30.9129 24.1401 31.3179 23.7801C31.7179 23.4351 32.2029 23.1201 32.6779 22.8851C33.1529 22.6701 33.5979 22.5401 33.9429 22.5651Z" fill="#EEEEF0"/>
</svg>
