<svg width="92" height="48" viewBox="0 0 92 48" fill="none" xmlns="http://www.w3.org/2000/svg">
<g clip-path="url(#clip0_127_587)">
<mask id="mask0_127_587" style="mask-type:luminance" maskUnits="userSpaceOnUse" x="0" y="0" width="92" height="48">
<path d="M91.1543 0.0228271H0.494507V47.943H91.1543V0.0228271Z" fill="white"/>
</mask>
<g mask="url(#mask0_127_587)">
<path fill-rule="evenodd" clip-rule="evenodd" d="M91.1543 23.9829C91.1543 37.2138 70.8569 47.9398 45.8264 47.9398C20.7893 47.9398 0.494507 37.2138 0.494507 23.9829C0.494507 10.7519 20.7893 0.0258789 45.8264 0.0258789C70.8569 0.0258789 91.1543 10.7519 91.1543 23.9829Z" fill="#EEEEF0"/>
<path fill-rule="evenodd" clip-rule="evenodd" d="M89.2787 23.9654C89.2787 36.1166 69.8162 45.9672 45.81 45.9672C21.8028 45.9672 2.34058 36.1166 2.34058 23.9654C2.34058 11.8148 21.8028 1.96472 45.81 1.96472C69.8162 1.9646 89.2787 11.8148 89.2787 23.9654ZM45.81 3.69684C22.7443 3.69684 4.04453 12.7716 4.04453 23.9653C4.04453 35.1593 22.7443 44.2341 45.81 44.2341C68.8751 44.2341 87.5742 35.1593 87.5742 23.9653C87.5742 12.7716 68.8751 3.69684 45.81 3.69684Z" fill="black"/>
<path fill-rule="evenodd" clip-rule="evenodd" d="M86.4932 23.9654C86.4932 34.5577 68.2782 43.1446 45.81 43.1446C23.3408 43.1446 5.12634 34.5577 5.12634 23.9654C5.12634 13.374 23.3408 4.7876 45.81 4.7876C68.2787 4.7876 86.4932 13.3738 86.4932 23.9654ZM71.8833 14.9866H64.9059L64.0557 17.4355H68.5723L63.4205 19.2333L63.0804 20.2265L71.0076 17.6064L71.8833 14.9866ZM27.3963 19.2848H24.554C24.554 19.2848 27.1883 12.2078 27.3995 11.6728C27.7753 10.7249 27.9997 10.7901 27.9997 10.7901H24.074C24.5599 11.0244 24.1294 11.9483 24.1294 11.9483C24.1294 11.9483 20.9851 20.7741 20.7661 21.215C20.5471 21.6568 20.383 21.7124 20.383 21.7124H27.1815L28.1324 19.0984C28.0504 19.3473 27.3963 19.2848 27.3963 19.2848ZM39.3216 21.7011H42.5237C42.5237 21.7011 42.3043 21.3735 42.4413 21.0153C42.631 20.5178 44.3297 15.8577 44.3297 15.8577L45.0683 21.7011H47.9689L51.7713 11.3068C51.7713 11.3068 51.9271 10.8193 52.139 10.8193L49.0571 10.8102C49.0571 10.8102 49.1452 11.169 49.0354 11.4449C48.9266 11.7209 47.1745 16.4371 47.1745 16.4371L46.4905 10.8103H43.1803C43.1803 10.8103 43.3517 11.0858 43.2421 11.389C43.1527 11.6351 39.7326 21.0976 39.7326 21.0976C39.7326 21.0976 39.5138 21.7011 39.3216 21.7011ZM53.9614 10.8132C53.9614 10.8132 54.2351 11.2545 53.8787 12.2745C53.5228 13.2954 50.732 20.8797 50.732 20.8797C50.732 20.8797 50.5124 21.5931 50.2122 21.7317L54.5905 21.7267C54.5905 21.7267 59.8981 21.9244 61.5403 16.3011C61.5403 16.3011 63.6196 10.7576 57.5997 10.8132H53.9614ZM54.4261 19.2153C54.4261 19.2153 54.4399 19.2109 54.9316 19.2109C55.6767 19.2109 57.0564 19.0454 57.9832 16.7703C59.5065 13.0309 57.3812 13.1574 57.3812 13.1574H56.5601L54.4261 19.2153ZM15.49 30.5072H22.4673L23.3164 28.0579H18.8007L23.9518 26.2604L24.2931 25.2676L16.3657 27.8878L15.49 30.5072ZM27.7175 35.0249C27.6072 35.0249 27.6072 34.6689 27.6072 34.6689L28.8905 31.2364C28.8905 31.2364 30.4892 34.3983 30.599 34.6191C30.7086 34.84 30.6531 35.0238 30.6531 35.0238H34.4778C34.1131 35.0238 33.7367 34.3252 33.7367 34.3252L31.8328 30.8815C34.4959 30.8815 35.3478 28.2209 35.3478 28.2209C36.6611 23.9918 32.2408 24.102 32.2408 24.102H27.7175C28.0455 24.4699 27.7898 25.2422 27.7898 25.2422C27.7898 25.2422 24.9806 33.3375 24.7622 33.9631C24.5431 34.5882 24.1419 35.0249 24.1419 35.0249H27.7175ZM30.4282 26.6131L29.6869 28.8097H30.3801C30.3801 28.8097 31.7304 28.9295 32.2286 27.8474C32.2286 27.8474 32.8114 26.6075 31.1823 26.6075C30.8256 26.6075 30.4282 26.6131 30.4282 26.6131ZM67.2917 35.0649C67.0179 35.0705 67.2084 34.3957 67.2084 34.3957L68.3538 31.2764C68.3538 31.2764 69.8969 34.4388 70.0057 34.6602C70.1155 34.8806 70.0608 35.0644 70.0608 35.0644H74.0213C73.6562 35.0644 73.2544 34.3658 73.2544 34.3658L71.3497 30.9211C74.0142 30.9211 74.8159 28.3563 74.8159 28.3563C76.2145 23.9281 71.7592 24.1426 71.7592 24.1426H67.2717C67.6011 24.5105 67.3453 25.2827 67.3453 25.2827C67.3453 25.2827 64.4188 33.4091 64.1992 34.0336C63.9807 34.6601 63.5604 35.0588 63.5604 35.0588L67.2917 35.0649ZM69.8995 28.8493C69.8995 28.8493 71.2394 28.9514 71.6494 27.8932C72.1335 26.6467 70.9259 26.6797 70.9259 26.6797H69.9352L69.2055 28.8493H69.8995ZM40.0775 35.295C44.0255 35.295 46.3749 31.3918 46.3749 28.5914C46.3749 25.6538 45.177 23.8208 42.4413 23.8208C38.951 23.8208 36.6742 26.4902 36.0866 29.8089C35.5466 32.8608 37.2565 35.295 40.0775 35.295ZM40.3261 32.7139C41.3109 32.8972 42.3936 32.1829 42.959 29.9004C43.8164 26.4466 42.2361 26.4181 41.9477 26.3826C41.074 26.275 39.9075 27.2893 39.4336 29.4042C39.2166 30.3701 38.9864 32.4636 40.3261 32.7139ZM47.312 24.1426C47.312 24.1426 47.5835 24.2895 47.5835 24.9877V34.4387C47.5835 34.4387 47.5463 34.9562 47.3523 35.0644H50.2858C50.2858 35.0644 50.2858 34.843 50.5769 34.4754C50.869 34.1077 56.9614 25.8714 56.9614 25.8714C56.9614 25.8714 58.3509 24.1426 58.715 24.1426H54.517C54.517 24.1426 54.8459 24.3635 54.5905 24.7679C54.3347 25.1726 50.6031 30.7987 50.6031 30.7987L50.6498 25.1238C50.6498 25.1238 50.6433 24.2139 51.0056 24.1375L47.312 24.1426ZM65.0469 26.7193L65.9951 24.1401L58.8819 24.1409C58.8819 24.1409 59.1368 24.3678 58.8094 25.2868C58.4806 26.207 55.5985 34.0377 55.5985 34.0377C55.5985 34.0377 55.0874 35.067 54.9424 35.067H62.2746L63.1504 32.4564C63.1504 32.4564 63.0411 32.6033 62.3482 32.6033H59.2465L59.9037 30.8382H62.3109C62.3109 30.8382 62.822 30.8017 62.9313 30.9489L63.9163 28.1587C63.9163 28.1587 63.8443 28.4112 63.1866 28.4112H60.8515L61.5459 26.4628H64.5005C64.5005 26.4628 64.9019 26.4071 65.0469 26.7193ZM27.961 21.7109H31.4705C31.4705 21.7109 31.4596 21.4393 31.5511 21.2628C31.7178 20.944 32.1532 20.1752 32.1532 20.1752H35.6853L35.6921 21.1344C35.6921 21.1344 35.7103 21.465 35.4503 21.72H38.953C38.953 21.72 38.6927 21.5728 38.6449 21.1386L38.2054 11.5411C38.2054 11.5411 38.1865 10.9277 38.4762 10.7985H35.0015C35.0015 10.7985 35.2449 11.1017 34.7797 11.7911C34.3149 12.4807 28.3791 21.3518 28.3791 21.3518C28.3791 21.3518 28.2611 21.5799 27.961 21.7109ZM35.618 14.513L33.6677 17.7115H35.646L35.618 14.513Z" fill="black"/>
</g>
</g>
<defs>
<clipPath id="clip0_127_587">
<rect width="91.4043" height="48" fill="white" transform="translate(0.156494)"/>
</clipPath>
</defs>
</svg>
