<svg width="179" height="25" viewBox="0 0 179 25" fill="none" xmlns="http://www.w3.org/2000/svg">
<path fill-rule="evenodd" clip-rule="evenodd" d="M24.6603 23.6957C24.6603 23.6232 24.6603 23.5145 24.6603 23.442C24.6603 23.3696 24.7029 23.2971 24.7029 23.1884L25.043 21.4855C25.1705 20.942 25.3831 20.5435 25.7233 20.2899C26.0634 20.0362 26.5311 19.8913 27.1264 19.8913H32.2285L32.101 20.4348H27.1264C26.361 20.4348 25.8933 20.7971 25.7658 21.5217L25.4257 23.1159C25.4257 23.1884 25.3831 23.2609 25.3831 23.3333C25.3831 23.4058 25.3831 23.4783 25.3831 23.5145C25.3831 23.7681 25.4682 23.9855 25.6382 24.058C25.8083 24.1667 26.0209 24.2029 26.361 24.2029H31.2931L31.1656 24.7464H26.1059C25.128 24.7826 24.6603 24.4203 24.6603 23.6957ZM36.9055 24.6014C36.7354 24.4565 36.6504 24.2754 36.6504 24.0217C36.6504 23.9855 36.6504 23.913 36.6504 23.8406C36.6504 23.7681 36.6504 23.7319 36.6929 23.6594L36.8204 23.0797C36.8629 22.8986 36.9055 22.7536 36.9905 22.6087C37.0755 22.4638 37.1606 22.3551 37.2881 22.2464C37.4157 22.1377 37.5432 22.1014 37.7133 22.029C37.8834 21.9928 38.096 21.9565 38.3511 21.9565H43.6658L43.7508 21.4855C43.7508 21.413 43.7508 21.3406 43.7933 21.2681C43.7933 21.1957 43.7933 21.1232 43.7933 21.087C43.7933 20.8333 43.7083 20.6522 43.5808 20.5435C43.4107 20.4348 43.1981 20.3986 42.858 20.3986H37.5007L37.6283 19.8551H43.0705C43.5808 19.8551 43.9209 19.9638 44.176 20.1449C44.3886 20.3261 44.5162 20.6159 44.5162 20.9783C44.5162 21.1232 44.5162 21.3043 44.4736 21.4493L43.7933 24.7464H37.7558C37.3732 24.7826 37.0755 24.7464 36.9055 24.6014ZM38.4786 22.4638C38.181 22.4638 37.9259 22.5362 37.7983 22.6449C37.6708 22.7536 37.5858 22.9348 37.5007 23.1884L37.4157 23.5507C37.4157 23.6232 37.4157 23.6594 37.3732 23.6957C37.3732 23.7319 37.3732 23.8043 37.3732 23.8406C37.3732 24.0217 37.4157 24.1304 37.5432 24.2029C37.6708 24.2754 37.8409 24.2754 38.096 24.2754H43.1556L43.5382 22.4638H38.4786ZM55.8259 24.7101C55.8259 24.6739 55.8259 24.6377 55.8259 24.6014C55.8259 24.5652 55.8259 24.5652 55.8259 24.529C55.8259 24.4928 55.8259 24.4928 55.8259 24.4565L55.996 23.587C55.996 23.5145 56.0385 23.4058 56.0385 23.3696C56.0385 23.2609 55.996 23.1884 55.9534 23.1159C55.9109 23.0435 55.8684 23.0072 55.7834 22.971C55.6983 22.9348 55.6133 22.8986 55.4857 22.8986C55.3582 22.8986 55.2732 22.8986 55.1456 22.8986H50.2135L49.8309 24.8188H49.1081L50.1285 19.8913H56.081C56.4637 19.8913 56.7613 19.9638 56.9314 20.0725C57.1014 20.2174 57.1865 20.3986 57.1865 20.6522C57.1865 20.6884 57.1865 20.7609 57.1865 20.7971C57.1865 20.8696 57.1865 20.9058 57.1439 20.9783L57.0164 21.558C56.9739 21.7754 56.8888 21.9565 56.8038 22.0652C56.7188 22.2101 56.5912 22.2826 56.5062 22.3551C56.3786 22.4275 56.2936 22.4638 56.166 22.5C56.0385 22.5362 55.9534 22.5362 55.8684 22.5362C55.9534 22.5362 56.0385 22.5725 56.166 22.5725C56.2511 22.6087 56.3786 22.6449 56.4637 22.6812C56.5487 22.7536 56.6337 22.8261 56.6762 22.8986C56.7188 23.0072 56.7613 23.1159 56.7613 23.2609C56.7613 23.3333 56.7613 23.4058 56.7188 23.4783L56.5487 24.3478C56.5487 24.3841 56.5487 24.3841 56.5487 24.4203C56.5487 24.4565 56.5487 24.4565 56.5487 24.4928C56.5487 24.529 56.5487 24.5652 56.5487 24.6014C56.5487 24.6377 56.5912 24.6377 56.6337 24.6739H55.9109C55.8684 24.7826 55.8259 24.7464 55.8259 24.7101ZM56.4637 20.9783C56.4637 20.942 56.4637 20.8696 56.4637 20.8333C56.4637 20.6522 56.4211 20.5435 56.2936 20.471C56.166 20.3986 55.996 20.3986 55.7409 20.3986H50.7238L50.2986 22.3913H55.1881C55.4857 22.3913 55.6983 22.3551 55.9109 22.2464C56.1235 22.1377 56.2511 21.9565 56.2936 21.6667L56.4211 21.1232C56.4211 21.087 56.4211 21.0145 56.4637 20.9783ZM61.7359 24.2754H67.2632C67.5608 24.2754 67.8159 24.2029 67.9435 24.0942C68.1135 23.9855 68.1986 23.7681 68.2411 23.5507L68.2836 23.2971C68.2836 23.2246 68.2836 23.1522 68.3261 23.1159C68.3686 23.0797 68.3261 23.0072 68.3261 22.971C68.3261 22.7899 68.2836 22.6812 68.1561 22.6087C68.0285 22.5725 67.8584 22.5362 67.6033 22.5362H63.3941C63.0114 22.5362 62.7138 22.4638 62.5437 22.3188C62.3736 22.1739 62.2886 21.9928 62.2886 21.7391C62.2886 21.7029 62.2886 21.6304 62.2886 21.5942C62.2886 21.558 62.2886 21.4855 62.3311 21.413L62.4162 20.9783C62.5012 20.6159 62.6287 20.3261 62.8839 20.1449C63.0964 19.9638 63.4791 19.8551 63.9468 19.8551H69.5591L69.4741 20.3623H64.0743C63.7767 20.3623 63.5216 20.4348 63.3941 20.5435C63.224 20.6522 63.139 20.8333 63.0964 21.087L63.0539 21.3043C63.0539 21.3406 63.0539 21.413 63.0114 21.4493C63.0114 21.4855 63.0114 21.558 63.0114 21.5942C63.0114 21.7754 63.0539 21.8841 63.1815 21.9565C63.309 22.029 63.4791 22.0652 63.7342 22.0652H67.9435C68.3261 22.0652 68.6237 22.1377 68.7938 22.2826C68.9639 22.4275 69.0489 22.6087 69.0489 22.8623C69.0489 22.9348 69.0489 22.971 69.0489 23.0435C69.0489 23.1159 69.0489 23.1522 69.0064 23.2246L68.9214 23.7319C68.8789 23.913 68.8363 24.058 68.7513 24.2029C68.6663 24.3478 68.5812 24.4565 68.4537 24.5652C68.3261 24.6739 68.1986 24.7464 68.0285 24.7826C67.8584 24.8188 67.6458 24.8551 67.3907 24.8551H61.6508L61.7359 24.2754ZM82.1869 24.7826H81.4641L82.4846 19.8551H88.3095C88.6922 19.8551 88.9898 19.9275 89.1599 20.0362C89.3299 20.1812 89.415 20.3623 89.415 20.6159C89.415 20.6522 89.415 20.7246 89.415 20.7609C89.415 20.8333 89.415 20.8696 89.3725 20.942L89.1173 22.1014C89.0748 22.3188 88.9898 22.5 88.9473 22.6449C88.8622 22.7899 88.7772 22.9348 88.6497 23.0072C88.5221 23.1159 88.3945 23.1884 88.2245 23.2246C88.0544 23.2609 87.8418 23.2971 87.6292 23.2971H82.5271L82.1869 24.7826ZM88.6496 20.8696C88.6496 20.6884 88.6071 20.5797 88.4796 20.5072C88.352 20.4348 88.1819 20.3986 87.9268 20.3986H83.0798L82.5696 22.8986H87.4166C87.7142 22.8986 87.9694 22.8261 88.0969 22.7174C88.2245 22.6087 88.352 22.3913 88.3945 22.1014L88.6071 21.1594L88.6496 20.8696ZM100.427 24.7101C100.427 24.6739 100.427 24.6377 100.427 24.6014C100.427 24.5652 100.427 24.5652 100.427 24.529C100.427 24.4928 100.427 24.4928 100.427 24.4565L100.597 23.587C100.597 23.5145 100.64 23.4058 100.64 23.3696C100.64 23.2609 100.597 23.1884 100.555 23.1159C100.512 23.0435 100.47 23.0072 100.385 22.971C100.3 22.9348 100.214 22.8986 100.087 22.8986C99.9594 22.8986 99.8743 22.8986 99.7468 22.8986H94.8147L94.4321 24.8188H93.7093L94.7297 19.8913H100.682C101.065 19.8913 101.362 19.9638 101.533 20.0725C101.703 20.2174 101.788 20.3986 101.788 20.6522C101.788 20.6884 101.788 20.7609 101.788 20.7971C101.788 20.8696 101.788 20.9058 101.745 20.9783L101.618 21.558C101.575 21.7754 101.49 21.9565 101.405 22.0652C101.32 22.2101 101.192 22.2826 101.107 22.3551C100.98 22.4275 100.895 22.4638 100.767 22.5C100.64 22.5362 100.555 22.5362 100.47 22.5362C100.555 22.5362 100.64 22.5725 100.767 22.5725C100.852 22.6087 100.98 22.6449 101.065 22.6812C101.15 22.7536 101.235 22.8261 101.277 22.8986C101.32 23.0072 101.362 23.1159 101.362 23.2609C101.362 23.3333 101.362 23.4058 101.32 23.4783L101.15 24.3478C101.15 24.3841 101.15 24.3841 101.15 24.4203C101.15 24.4565 101.15 24.4565 101.15 24.4928C101.15 24.529 101.15 24.5652 101.15 24.6014C101.15 24.6377 101.192 24.6377 101.235 24.6739H100.512C100.47 24.7826 100.427 24.7464 100.427 24.7101ZM101.065 20.9783C101.065 20.942 101.065 20.8696 101.065 20.8333C101.065 20.6522 101.022 20.5435 100.895 20.471C100.767 20.3986 100.597 20.3986 100.342 20.3986H95.3249L94.8998 22.3913H99.7893C100.087 22.3913 100.3 22.3551 100.512 22.2464C100.725 22.1377 100.852 21.9565 100.895 21.6667L101.022 21.1232C101.065 21.087 101.065 21.0145 101.065 20.9783ZM106.72 24.6014C106.55 24.4565 106.465 24.2754 106.465 24.0217C106.465 23.9855 106.465 23.913 106.465 23.8406C106.465 23.7681 106.465 23.7319 106.507 23.6594L106.635 23.0797C106.677 22.8986 106.72 22.7536 106.805 22.6087C106.89 22.4638 106.975 22.3551 107.102 22.2464C107.23 22.1377 107.357 22.1014 107.528 22.029C107.698 21.9928 107.91 21.9565 108.165 21.9565H113.48L113.565 21.4855C113.565 21.413 113.565 21.3406 113.608 21.2681C113.608 21.1957 113.608 21.1232 113.608 21.087C113.608 20.8333 113.523 20.6522 113.395 20.5435C113.225 20.4348 113.012 20.3986 112.672 20.3986H107.357L107.485 19.8551H112.927C113.438 19.8551 113.778 19.9638 114.033 20.1449C114.245 20.3261 114.373 20.6159 114.373 20.9783C114.373 21.1232 114.373 21.3043 114.33 21.4493L113.65 24.7464H107.57C107.145 24.7826 106.89 24.7464 106.72 24.6014ZM108.293 22.4638C107.995 22.4638 107.74 22.5362 107.613 22.6449C107.485 22.7536 107.4 22.9348 107.315 23.1884L107.23 23.5145C107.23 23.587 107.23 23.6232 107.187 23.6594C107.187 23.6957 107.187 23.7681 107.187 23.8043C107.187 23.9855 107.23 24.0942 107.357 24.1667C107.485 24.2391 107.655 24.2391 107.91 24.2391H112.97L113.352 22.4275H108.293V22.4638ZM119.305 24.6014C119.135 24.4565 119.05 24.2754 119.05 23.9855C119.05 23.913 119.05 23.8406 119.05 23.7681C119.05 23.6957 119.092 23.587 119.092 23.5145L119.518 21.4855C119.645 20.942 119.858 20.5435 120.198 20.2899C120.538 20.0362 121.006 19.8913 121.558 19.8913H126.958L126.831 20.4348H121.601C121.218 20.4348 120.878 20.5435 120.666 20.7246C120.453 20.9058 120.283 21.1957 120.24 21.558L119.858 23.442C119.858 23.5145 119.815 23.5507 119.815 23.6232C119.815 23.6957 119.815 23.7319 119.815 23.7681C119.815 23.9855 119.858 24.1304 119.985 24.2029C120.07 24.2754 120.283 24.3116 120.538 24.3116H125.513L125.98 22.1377H126.703L126.15 24.8188H120.198C119.773 24.7826 119.475 24.7464 119.305 24.6014ZM131.678 23.6957C131.678 23.6232 131.678 23.5507 131.678 23.4783C131.678 23.4058 131.72 23.2971 131.72 23.2246L132.4 19.9275H133.123L132.443 23.1884C132.4 23.3333 132.4 23.4783 132.4 23.587C132.4 23.8406 132.486 24.0217 132.656 24.1304C132.826 24.2391 133.038 24.2754 133.378 24.2754H137.928L138.821 19.9275H139.501L138.481 24.8551H133.081C132.188 24.7826 131.678 24.4203 131.678 23.6957ZM144.093 23.6957C144.093 23.6232 144.093 23.5507 144.093 23.442C144.093 23.3696 144.135 23.2609 144.135 23.1884L144.603 20.9783C144.688 20.6159 144.816 20.3623 145.071 20.1449C145.326 19.9638 145.666 19.8551 146.134 19.8551H150.811C151.193 19.8551 151.491 19.9275 151.661 20.0362C151.831 20.1812 151.916 20.3623 151.916 20.6159C151.916 20.6522 151.916 20.7246 151.916 20.7609C151.916 20.8333 151.916 20.8696 151.874 20.942L151.746 21.5217C151.661 21.8841 151.533 22.1377 151.278 22.3551C151.066 22.5362 150.683 22.6449 150.215 22.6449H144.986L144.901 23.0797C144.901 23.1522 144.858 23.2246 144.858 23.2971C144.858 23.3696 144.858 23.442 144.858 23.4783C144.858 23.7319 144.943 23.913 145.113 24.0217C145.283 24.1304 145.496 24.1667 145.836 24.1667H151.151L151.023 24.7101H145.581C144.603 24.7826 144.093 24.4203 144.093 23.6957ZM151.236 20.9783C151.236 20.942 151.236 20.9058 151.236 20.8696C151.236 20.6884 151.193 20.5797 151.066 20.5072C150.938 20.4348 150.768 20.3986 150.513 20.3986H146.304C146.006 20.3986 145.751 20.471 145.624 20.5797C145.453 20.6884 145.368 20.8696 145.326 21.1232L145.113 22.2101H150.173C150.471 22.2101 150.726 22.1377 150.853 22.029C151.023 21.9203 151.108 21.7029 151.151 21.4855L151.236 21.1232C151.193 21.087 151.193 21.0145 151.236 20.9783ZM1.14798 14.1304C0.38266 13.5507 0 12.6812 0 11.558C0 11.1232 0.0425178 10.6522 0.170071 10.1087L1.27553 4.85507C1.57316 3.22464 2.29596 1.99275 3.31639 1.19565C4.37933 0.398551 5.86746 0 7.78076 0H20.4936C22.1093 0 23.2998 0.289855 24.1076 0.869565C24.8729 1.44928 25.2556 2.31884 25.2556 3.44203C25.2556 3.87681 25.2131 4.34783 25.0855 4.85507L23.98 10.1087C23.6399 11.7754 22.9171 12.971 21.8542 13.7681C20.7912 14.5652 19.3031 14.9638 17.3898 14.9638H4.71948C3.1038 14.9638 1.9133 14.7101 1.14798 14.1304ZM18.9629 5.18116C18.9629 4.81884 18.7078 4.63768 18.2401 4.63768H8.16342C7.8658 4.63768 7.61069 4.71014 7.48314 4.81884C7.35558 4.92754 7.22803 5.1087 7.18551 5.36232L6.29264 9.56522C6.29264 9.60145 6.25012 9.67391 6.25012 9.74638C6.25012 10.0725 6.50523 10.2174 7.01544 10.2174H17.1347C17.6874 10.2174 18.0276 10 18.1126 9.52899L19.0055 5.32609V5.18116H18.9629ZM32.4411 14.9638H26.4461L29.5074 0H48.5553C49.8734 0 50.7663 0.217391 51.319 0.615942C51.8717 1.01449 52.1694 1.5942 52.1694 2.3913C52.1694 2.53623 52.1694 2.71739 52.1268 2.89855C52.1268 3.07971 52.0843 3.22464 52.0418 3.4058L51.0639 8.07971C50.9363 8.73188 50.7238 9.27536 50.5112 9.74638C50.2561 10.2174 49.9584 10.5797 49.5758 10.8696C49.1931 11.1594 48.7254 11.3768 48.1302 11.5217C47.5774 11.6667 46.8971 11.7391 46.1318 11.7391H33.1214L32.4411 14.9638ZM45.8342 4.52899C45.8342 4.34783 45.7066 4.23913 45.4515 4.23913H34.652L33.8867 7.89855H44.6862C44.9838 7.89855 45.1964 7.75362 45.239 7.5L45.8342 4.63768V4.52899ZM62.4161 4.67391H53.8701L54.8055 0H77.9352L76.9572 4.67391H68.3686L66.2428 14.9638H60.2903L62.4161 4.67391ZM80.6988 0H86.6938L83.59 14.9638H77.595L80.6988 0ZM112.842 5.36232V5.21739C112.842 4.85507 112.587 4.67391 112.119 4.67391H107.145L105.019 15H99.024L101.15 4.67391H95.3675L93.2416 15H87.2466L90.3078 0H114.373C117.519 0 119.092 1.15942 119.092 3.47826C119.092 3.91304 119.05 4.34783 118.922 4.85507L116.839 14.9638H110.844L112.842 5.36232ZM121.091 11.5217C121.091 11.087 121.133 10.6159 121.261 10.1087L123.344 0H129.382L127.426 9.56522C127.426 9.60145 127.383 9.63768 127.383 9.74638C127.383 10.0725 127.638 10.2536 128.149 10.2536H138.523L140.606 0H146.559L143.455 14.9638H125.81C122.664 14.9638 121.091 13.8406 121.091 11.5217ZM172.707 5.36232V5.21739C172.707 4.85507 172.452 4.67391 171.985 4.67391H167.01L164.884 15H158.889L161.015 4.67391H155.233L153.107 15H147.112L150.173 0H174.238C177.384 0 178.957 1.15942 178.957 3.47826C178.957 3.91304 178.915 4.34783 178.787 4.85507L176.704 14.9638H170.709L172.707 5.36232Z" fill="white"/>
</svg>
