<svg width="65" height="64" viewBox="0 0 65 64" fill="none" xmlns="http://www.w3.org/2000/svg">
<path fill-rule="evenodd" clip-rule="evenodd" d="M32.6877 60.7243C16.7942 60.7243 3.90967 47.8393 3.90967 31.9461C3.90967 16.0526 16.7942 3.16809 32.6877 3.16809C48.5815 3.16809 61.4658 16.0526 61.4658 31.9461C61.4658 47.8393 48.5815 60.7243 32.6877 60.7243Z" fill="#EEEEF0"/>
<path fill-rule="evenodd" clip-rule="evenodd" d="M32.6955 36.2933L9.33094 45.9638C14.2538 54.2355 23.1747 59.2828 32.7951 59.233C42.3909 59.2082 51.2869 54.11 56.1598 45.8141L32.6955 36.2933ZM28.6484 29.4634L32.3716 4.79968C22.7758 4.92445 13.9299 10.0972 9.13218 18.4184C4.30952 26.7396 4.25942 36.9849 8.98249 45.3563L28.6484 29.4634ZM36.6186 29.7906L56.5093 45.1833C61.1325 36.8123 61.032 26.6418 56.2096 18.3706C53.8523 14.3038 50.4817 10.9167 46.4267 8.53886C42.3716 6.16105 37.7701 4.87353 33.0699 4.80164L36.6186 29.7906Z" fill="black"/>
</svg>
