<svg width="53" height="64" viewBox="0 0 53 64" fill="none" xmlns="http://www.w3.org/2000/svg">
<path fill-rule="evenodd" clip-rule="evenodd" d="M40.5583 53.3901C36.9198 56.6968 33.7876 58.4791 27.189 61.9316C21.0468 59.1453 17.0378 56.3983 13.5613 53.693C8.75683 49.9619 5.30571 43.9034 5.0063 40.1878L2.60938 4.82294C18.8472 0.612561 36.1187 0.708351 51.0591 5.10572L48.6271 40.1124C48.3175 43.2829 45.4741 49.447 40.5583 53.3901ZM45.8452 38.9527L48.0399 7.6922C35.1818 3.60789 19.7804 3.54732 5.58991 7.26293L7.82988 38.9326C8.06319 42.2239 10.4399 47.2576 14.9962 51.1147C17.7381 53.4372 23.1103 57.3349 27.0779 58.8288C31.6497 56.5221 35.8051 53.6544 39.0996 50.8224C43.1842 47.1111 45.5967 42.4968 45.8452 38.9527ZM38.5722 49.9968C35.4145 52.7133 31.1629 55.7577 27.0779 57.7012C23.4292 56.5754 18.0369 52.4252 15.442 50.194C10.9161 46.2963 9.07642 42.2176 8.79779 38.3598L6.59817 8.12938C20.1096 4.59053 34.8576 4.59053 47.1116 8.4826L44.9377 38.3095C44.6235 42.2776 42.7735 46.0689 38.5722 49.9968ZM7.60809 8.71696L8.04399 13.9271C20.9421 10.7112 34.4538 11.0345 45.6691 14.417L46.1506 9.11597C34.5292 5.56165 20.4202 5.36973 7.60809 8.71696ZM39.6826 10.6506L36.7734 10.171L36.6617 11.5342L35.7142 11.3926L35.9369 7.77808L36.9053 7.91963L36.8038 9.30785L39.7536 9.78221L39.8498 8.39405L40.8379 8.5807L40.5391 12.2054L39.5761 12.029L39.6826 10.6506ZM25.6431 9.4241C25.2881 9.4241 25.0042 9.32827 24.8169 9.0152C24.655 8.7578 24.655 7.91963 24.8169 7.64216C24.9943 7.3192 25.3136 7.22837 25.5773 7.22837L29.7026 7.23326L29.7122 8.12176L25.8103 8.11652C25.6176 8.11652 25.6126 8.54579 25.8255 8.54579H28.9015C29.2617 8.54579 29.5806 8.76275 29.6817 9.04551C29.7935 9.34835 29.7733 10.0351 29.6817 10.3178C29.5958 10.6006 29.2713 10.757 28.8658 10.757H24.7967L24.7914 9.84807H28.4147C28.4682 9.84388 28.5183 9.81968 28.5547 9.7804C28.5912 9.74113 28.6114 9.68958 28.6114 9.63605C28.6114 9.58259 28.5912 9.53104 28.5547 9.49171C28.5183 9.45243 28.4682 9.42829 28.4147 9.4241H25.6431ZM23.2564 9.78518C23.2555 9.73997 23.2456 9.6954 23.2272 9.65403C23.2089 9.61267 23.1824 9.57537 23.1494 9.54436C23.1163 9.51335 23.0774 9.4892 23.0349 9.47332C22.9924 9.4575 22.9471 9.45022 22.9018 9.45203L20.1648 9.64891L20.2203 11.0019L19.3333 11.0928L19.1456 7.52365L23.2207 7.22046C23.7478 7.18032 24.0568 7.57403 24.0819 7.90224C24.1123 8.29101 24.1275 8.79073 23.8231 8.99774C24.0769 9.18439 24.1427 9.46227 24.1477 9.85104L24.1579 10.7649L23.2709 10.8001L23.2564 9.78518ZM22.6751 8.62677C23.0247 8.6067 22.9943 8.06613 22.6751 8.09674L20.0699 8.29363L20.1004 8.7884L22.6751 8.62677ZM14.1409 8.15271C14.977 7.95588 16.6899 7.6833 17.5871 7.61744C17.9976 7.58747 18.3168 7.79949 18.3726 8.11751C18.5045 8.84961 18.5858 9.60679 18.4945 10.6217C18.4691 10.9143 18.2156 11.1467 17.8812 11.2175C16.7312 11.47 15.4384 11.6063 14.4803 11.6971C14.2371 11.7225 13.8521 11.5306 13.786 11.2277C13.6187 10.4903 13.5579 9.46064 13.6085 8.75384C13.629 8.4908 13.8722 8.21328 14.1409 8.15271ZM17.3961 10.3267C17.5124 10.3017 17.5633 10.1753 17.5735 10.0844C17.6142 9.80659 17.5785 9.07972 17.5124 8.8371C17.4922 8.74133 17.4113 8.68077 17.2289 8.6959C16.7322 8.72621 15.4192 8.91315 14.7708 9.05441C14.5986 9.09491 14.5325 9.19562 14.5226 9.28644C14.4922 9.52382 14.5629 10.1749 14.6241 10.5387C14.6392 10.6246 14.751 10.6849 14.8369 10.6802C15.7133 10.6095 16.7473 10.4683 17.3961 10.3267ZM31.768 8.30317C31.575 8.29787 31.4435 8.41412 31.4287 8.51518C31.3827 8.81307 31.3672 9.19661 31.3672 9.69662C31.3672 9.76213 31.4789 9.94389 31.575 9.95902C32.4472 10.0802 34.1395 10.2319 35.0619 10.2925L35.0064 11.2264C33.7949 11.1711 32.5278 10.9792 31.2155 10.888C30.7849 10.8577 30.4706 10.6256 30.455 10.2118C30.43 9.53005 30.4706 8.5 30.5919 7.89956C30.6732 7.53086 31.0274 7.33927 31.4283 7.34916C32.6392 7.3946 33.6022 7.50061 35.1888 7.71262L35.128 8.6419C34.3576 8.57575 32.8983 8.34861 31.768 8.30317ZM11.9357 8.57412C13.1621 8.28635 13.3494 10.4571 12.3256 10.7096L9.46735 11.4216L9.60419 12.8249L8.70726 13.0626L8.38802 9.40693L11.9357 8.57412ZM11.9208 9.99585C12.2146 9.9304 12.1743 9.40566 11.8597 9.47117L9.28 10.092L9.34109 10.6325L11.9208 9.99585ZM42.25 11.1918L42.1892 11.7775L45.022 12.4892L44.946 13.3072L41.1449 12.4138L41.4747 8.73307L45.3009 9.65712L45.215 10.5154L42.3667 9.82864L42.3112 10.4498L45.139 11.1362L45.0679 11.8631L42.25 11.1918ZM14.8346 21.6671C14.4393 22.1922 14.0745 23 13.9023 23.6864C13.8412 23.9188 13.8412 24.0043 13.8821 24.1558C14.2569 23.9892 14.7437 23.8276 15.0273 23.7367C15.139 23.4898 15.1994 23.2067 15.2959 22.9796C15.4476 22.6264 15.5441 22.4746 15.7014 22.2274C16.1525 21.5308 17.1053 20.8441 17.8095 20.8593C17.5762 21.061 17.0897 21.566 16.8974 21.8689C16.7404 22.1214 16.5933 22.3939 16.4816 22.6768C16.3855 22.9296 16.3551 23.1159 16.3297 23.3229C16.6945 23.2169 17.0544 23.1412 17.2873 23.1261C17.4447 23.0402 17.4952 22.8732 17.5815 22.7169C17.8498 22.2172 18.3769 21.6565 18.7117 21.4752C18.98 21.3287 19.3756 21.1875 19.6592 21.2783C19.3551 21.5054 19.0359 21.8689 18.8941 22.0862C18.7471 22.3182 18.5088 22.7679 18.519 22.9796C18.7675 23 19.1222 22.9796 19.2642 22.9443L19.2487 22.2474L26.5314 22.2422L26.5264 12.3167C20.8601 12.3167 14.6518 12.8519 8.06848 14.6846L9.42674 33.3284H19.2434V29.6842C18.8482 29.3916 17.0134 29.1793 15.8835 29.6184C15.6099 29.7244 14.7179 30.1083 14.3124 30.4259L13.1723 31.325C13.0606 31.4158 13.0507 31.6127 13.0507 31.7638C13.0507 32.0969 12.6604 32.3494 12.4426 32.2786C12.2651 32.2181 12.0219 32.1828 11.7989 32.2335C11.5606 32.2836 11.3481 31.9853 11.3276 31.8144C11.2972 31.6021 11.4647 31.325 11.4747 31.2338C11.4849 31.1479 11.4291 30.8095 11.743 30.6027C11.8847 30.5122 12.0824 30.5168 12.2245 30.5929C12.2658 30.6168 12.3148 30.6241 12.3613 30.6132C12.4122 30.5929 12.549 30.472 12.5844 30.4418C12.5996 30.2399 12.5692 29.9216 12.5897 29.7451C12.6353 29.4018 12.6554 29.2049 12.7618 28.8715C12.8531 28.5838 13.0507 28.165 13.1974 27.9274C13.4611 27.4984 13.983 27.0843 14.3736 27.1195C14.2212 27.3216 14.1706 27.4277 14.0593 27.6347C13.8514 28.0133 13.6588 28.6394 13.5679 29.0634C13.5067 29.336 13.4767 29.5483 13.4918 29.8357C13.791 29.6138 14.1049 29.4318 14.3128 29.3159C14.4089 28.8159 14.6069 28.276 14.8194 27.8773C15.0729 27.3973 15.7569 26.8772 16.2034 26.9177C15.7827 27.372 15.4833 28.0031 15.3719 28.407C15.3263 28.5683 15.2705 28.7556 15.2962 28.8564C15.4632 28.7655 15.8082 28.6746 15.975 28.6595C16.0868 28.3819 16.2388 28.0485 16.3657 27.8516C16.7609 27.2456 17.3842 26.8772 17.7391 26.8924C17.4602 27.266 17.2219 27.6041 17.0497 28.1041C16.9989 28.2503 16.9737 28.407 16.9737 28.4827C17.1915 28.4475 17.5312 28.4475 17.6681 28.4475C17.9215 28.2203 18.1036 27.9474 18.408 27.7154C18.6615 27.5182 19.1327 27.2508 19.2441 27.2305V24.166C19.2441 24.1002 18.4384 24.0399 18.0379 24.0903C16.9737 24.2167 14.3131 25.0495 13.1878 25.8222C13.1624 25.888 13.1677 26.2564 13.0913 26.4279C13.0256 26.5842 12.8584 26.7459 12.6964 26.8167C12.4076 26.9431 12.0728 26.5592 11.9258 26.6148C11.7737 26.6705 11.4495 26.8015 11.0996 26.5543C10.9426 26.4433 10.8616 26.13 10.9171 25.8982C10.968 25.7313 11.1098 25.6003 11.2212 25.4943C11.3226 25.3932 11.2516 25.0044 11.6161 24.7723C11.8699 24.6107 12.2192 24.7421 12.4882 24.8833C12.5429 24.866 12.593 24.8368 12.6349 24.7977C12.6703 24.6914 12.7262 24.3684 12.7771 24.1159C12.8379 23.8431 12.8584 23.6666 12.9393 23.4144C13.1422 22.8038 13.6283 21.9252 14.1356 21.4656C14.5359 21.1121 15.1591 20.8296 15.6204 20.8599C15.5745 20.9297 15.0021 21.4399 14.8346 21.6671ZM16.0061 15.6909C16.3914 15.156 17.405 14.3481 18.1856 14.3939C17.7596 14.7623 17.3845 15.1711 17.1211 15.6053C16.7768 16.1659 16.4979 16.8675 16.4371 17.408C16.6954 17.3119 17.3036 17.1403 17.6532 17.0647C17.9625 16.3931 18.368 15.6511 18.87 15.2521C19.2296 14.9644 19.7464 14.7172 20.2283 14.7725C20.1165 14.9291 19.9341 15.0503 19.7973 15.1764C19.5491 15.3933 19.3769 15.6863 19.2398 15.9842C19.1383 16.2061 18.9662 16.8727 18.9609 16.903C19.3105 16.8981 19.9288 16.9382 20.0607 16.9787C20.4714 16.4434 21.3687 15.6659 22.4428 15.8427C21.9764 16.0948 21.1251 16.8316 21.176 17.2358C21.8753 17.6855 22.9193 18.6293 22.9649 19.503C22.4887 19.0082 21.7032 18.5184 21.3076 18.3821C20.3597 18.0489 19.2296 18.0035 18.287 18.175C16.3207 18.5437 14.5824 19.3917 12.9152 20.3865C12.8749 20.6538 12.7275 21.0577 12.6058 21.1943C12.4842 21.3307 12.3018 21.4617 12.1042 21.4919C11.856 21.5324 11.6022 21.4314 11.3897 21.3205C11.2526 21.2447 10.893 21.3408 10.665 21.2194C10.508 21.1384 10.2644 20.9113 10.3305 20.5531C10.3861 20.2351 10.7053 20.0432 10.7509 19.7403C10.8167 19.2959 11.1412 19.104 11.3085 19.074C11.4909 19.0388 11.6785 19.0994 11.8455 19.1751C11.9165 19.2103 11.9921 19.2709 12.0586 19.2913C12.1243 19.2709 12.2205 19.1903 12.2764 19.1652C12.2916 19.1145 12.4591 18.1908 12.55 17.7869C12.6412 17.383 12.7982 17.0393 12.93 16.661C13.3256 15.5405 14.5467 14.4094 15.5252 14.4699C15.4744 14.5407 15.1601 14.7679 14.7242 15.2728C14.02 16.0955 13.8425 16.9692 13.5788 18.4686C14.1211 18.2162 14.5924 18.0344 15.0841 17.8577C15.2013 17.3929 15.3573 16.9387 15.5504 16.4998C15.677 16.216 15.8289 15.9385 16.0061 15.6909ZM45.5425 16.9323L27.4299 16.9478L27.4455 22.2587L45.1373 22.2484L45.5425 16.9323ZM29.5096 44.4301C29.3017 44.5361 29.0436 44.4706 28.9372 44.4249C28.7544 44.3491 28.6332 44.1618 28.6177 43.9452C28.6028 43.7737 28.77 43.5666 28.8054 43.3794C28.8202 43.3037 28.7395 42.9307 29.0585 42.7384C29.1199 42.7032 29.3017 42.6374 29.4283 42.6581C29.5555 42.6831 29.6567 42.7641 29.7832 42.7842C29.9554 42.7234 30.1203 42.6438 30.275 42.5468C30.3764 42.1577 30.4524 41.709 30.5026 41.3097C29.5958 41.7591 28.4094 42.062 27.4011 42.1024L27.4064 56.6274C31.6382 54.4863 36.2803 50.9831 38.2565 49.0592C41.4549 45.9543 43.6086 42.8092 43.9377 38.2755L44.2365 34.1458L34.623 34.1356C34.623 36.4778 33.8374 38.9218 31.5919 40.6885C31.4653 41.1985 31.4049 42.0567 31.4144 42.0774C31.7238 41.9506 32.0129 41.84 32.2664 41.7644C32.2865 41.734 32.6465 40.9515 32.8087 40.7395C33.1887 40.1539 33.7007 39.6536 34.3236 39.3204C34.7142 39.1235 35.1904 38.9418 35.6111 39.0985C35.0586 39.3609 34.6273 39.8353 34.3692 40.1079C34.1309 40.3607 33.8523 40.734 33.7258 41.1178C33.7085 41.1843 33.6949 41.2516 33.6851 41.3196C33.9439 41.2386 34.7694 41.1178 35.1141 41.072C35.1547 41.0667 35.2611 40.84 35.3424 40.7287C35.4433 40.5924 35.5043 40.5068 35.6663 40.3248C36.082 39.8754 36.7863 39.3958 37.4704 39.5018C37.0959 39.7392 36.6848 40.1177 36.3557 40.7132C36.3098 40.8044 36.2493 40.9305 36.2744 40.9858C36.3759 41.0062 36.8778 40.996 37.1818 41.0316C37.5312 40.8149 37.9016 40.6227 38.3018 40.5371C38.7529 40.4361 39.3411 40.5167 39.5742 40.7287C39.3005 40.7132 39.0417 40.7639 38.7939 40.8597C38.6518 40.9156 38.3679 41.0467 38.2615 41.2281C38.5299 41.3038 38.9713 41.5918 39.2496 41.8242C39.4426 41.9856 39.6756 42.2183 39.8227 42.4299C40.1925 42.9303 40.2688 43.8284 40.0705 44.0963C40.015 43.9393 39.9542 43.7833 39.8679 43.6368C39.6905 43.3392 39.4116 43.0156 39.1733 42.8388C38.0232 41.9658 36.3663 41.92 35.0126 42.1926C33.852 42.43 31.7588 42.8645 30.3906 43.8333C30.426 44.0048 30.3196 44.2929 30.1629 44.4035C29.9554 44.5559 29.6619 44.3491 29.5096 44.4301ZM31.768 46.0626C31.9197 45.8305 32.1025 45.4925 32.1933 45.3456C32.5129 44.8357 32.9743 44.4571 33.2879 44.3103C33.7192 44.1033 34.4128 43.9824 34.7222 44.1335C34.3827 44.2145 34.1243 44.3709 33.8864 44.5375C33.6432 44.7047 33.166 45.1385 33.0447 45.3206C32.9078 45.5224 32.8169 45.7038 32.7813 45.8002C33.166 45.714 33.6276 45.6432 33.8655 45.6432C34.0377 45.426 34.4941 44.9065 34.8339 44.6638C35.1075 44.4716 35.6904 44.28 36.0549 44.4364C35.7056 44.5476 35.0873 45.0325 34.8589 45.3809C34.8087 45.4612 34.7628 45.5474 34.7525 45.5925C34.9403 45.608 35.2948 45.6432 35.4878 45.6682C35.508 45.6682 36.0351 45.3456 36.2734 45.2798C36.5827 45.1935 37.0893 45.0829 37.4089 45.4213C37.1759 45.426 36.9578 45.4463 36.7853 45.5224C36.5368 45.633 36.4304 45.714 36.3193 45.8704C36.8055 46.1281 37.3127 46.3957 37.6115 46.8701C37.7179 47.0367 37.8798 47.4307 37.7889 47.6878C37.6366 47.4962 37.4287 47.3092 37.2615 47.2135C37.0232 47.0772 36.851 46.9461 36.5619 46.8349C35.655 46.4968 34.4694 46.406 33.5212 46.5321C32.2948 46.6884 30.7895 47.2945 30.0195 47.8192C30.0698 48.0565 29.9537 48.3341 29.8169 48.3999C29.5277 48.5464 29.2495 48.2988 29.1986 48.3143C29.1226 48.3393 28.8893 48.4203 28.7224 48.3495C28.5545 48.284 28.4488 47.9907 28.5145 47.8044C28.5648 47.6628 28.7684 47.461 28.7684 47.461C28.7373 47.1529 28.9402 46.9666 29.2188 46.9307C29.3764 46.9159 29.4871 47.0367 29.6143 47.0624C29.7307 47.0064 29.812 46.9666 29.8725 46.9356C29.9435 46.6834 30.0499 46.4257 30.121 46.2137C30.2373 45.8555 30.4095 45.5372 30.6276 45.2044C30.9418 44.7248 31.4997 44.2701 32.163 44.2606C31.9604 44.417 31.8434 44.5029 31.7168 44.6592C31.4993 44.9318 31.3315 45.1794 31.1798 45.472C31.043 45.7298 30.9157 46.113 30.8959 46.4514C31.1828 46.3134 31.4736 46.1838 31.768 46.0626ZM31.6699 48.7932C31.842 48.7225 32.0241 48.6725 32.2069 48.6929C31.7809 48.9648 31.391 49.3634 31.2845 49.8385C31.2743 49.8885 31.2743 49.9896 31.3199 50.0198C31.4412 49.9896 31.7505 49.9241 31.8318 49.8836C31.8821 49.7776 32.0086 49.611 32.0952 49.4997C32.3992 49.0964 32.8355 48.6929 33.4383 48.844C33.0427 49.0207 32.8147 49.2677 32.6424 49.5807C32.6121 49.6366 32.5922 49.7426 32.6322 49.7426C32.7337 49.7426 33.119 49.7272 33.1745 49.7272C33.352 49.5708 33.8692 49.2725 34.2241 49.3838C34.0467 49.4665 33.884 49.5774 33.7426 49.7124C33.7072 49.7522 33.6613 49.8029 33.6517 49.8635C33.9654 50.0198 34.2442 50.1966 34.503 50.4191C34.6398 50.535 34.8375 50.7523 34.9588 51.1256C34.6547 50.8632 33.6613 50.3931 33.1194 50.3681C32.7644 50.3533 32.3242 50.4188 32.1008 50.4692C31.2442 50.6615 30.3625 51.0453 29.6074 51.4742C29.6127 51.6207 29.5869 51.7968 29.4203 51.9334C29.3086 52.0246 29.0654 52.0697 28.9736 51.9387C28.9233 51.8679 28.5935 51.944 28.5231 51.8531C28.5231 51.8531 28.4365 51.7221 28.4263 51.5651C28.4167 51.3985 28.5278 51.2978 28.6193 51.2115C28.6444 51.1813 28.6394 50.8991 28.8522 50.8027C28.9838 50.7421 29.1156 50.7628 29.2273 50.8336C29.2733 50.8079 29.3086 50.7829 29.3391 50.7628C29.3642 50.4343 29.425 50.1314 29.5469 49.8036C29.7142 49.3387 30.2614 48.7735 30.7327 48.7936C30.4131 49.1369 30.155 49.6113 30.0684 50.0057C30.0433 50.1318 30.0337 50.3793 30.0337 50.4949C30.1464 50.4261 30.265 50.3671 30.388 50.3188C30.4389 50.1973 30.5856 49.8944 30.6616 49.7581C30.8533 49.4039 31.2845 48.95 31.6699 48.7932ZM9.91151 38.8098C9.97231 40.5664 10.6921 42.6874 11.6802 44.1559H26.423L26.3926 42.1067C24.4973 42.1067 21.6033 40.8594 20.4579 38.82L9.91151 38.8098ZM20.0468 34.2281C20.0468 43.5676 33.7605 43.5676 33.7605 34.3239L33.7658 23.0859L20.0468 23.081V34.2281ZM24.4649 29.7521C24.6271 29.5753 24.7693 29.3432 24.7994 29.1463C24.8248 28.9847 24.3688 28.995 24.2015 29.096C24.1103 29.1513 24.024 29.2626 23.953 29.3636C23.9024 29.4393 23.72 29.4999 23.6288 29.4143C23.5323 29.3234 23.7048 29.1668 23.6995 29.071C23.6995 28.9094 23.3902 29.1516 23.2484 29.0858C23.1523 29.0403 23.147 28.8942 23.2131 28.8083C23.2484 28.7629 23.3499 28.7829 23.3955 28.7329C23.4411 28.6822 23.4411 28.6065 23.4563 28.541C23.4768 28.4653 23.5578 28.4297 23.6083 28.3744C23.801 28.1877 24.1658 27.8694 24.2369 27.8747C24.4038 27.8898 24.6424 27.9757 24.7891 27.8997C24.8195 27.8846 24.8753 27.8342 24.8244 27.8039L24.4292 27.5458C24.4275 27.5051 24.4347 27.4646 24.4504 27.4271C24.4662 27.3895 24.4901 27.3559 24.5204 27.3286C24.7028 27.1669 24.9867 27.2782 25.225 27.2426C25.3922 27.2173 25.5492 27.1518 25.6708 27.0359C25.7012 27.157 25.6252 27.2782 25.6252 27.4043C25.7772 27.5458 25.9345 27.6667 26.0816 27.8033C26.5175 28.2371 26.7049 28.8685 26.7352 29.4239C26.7607 29.6813 26.7607 29.9437 26.7607 30.3729C26.8318 30.1912 26.8774 29.9236 26.8926 29.6912C26.9583 29.0045 26.8519 28.3938 26.462 27.8737C26.3035 27.6544 26.1235 27.4514 25.9246 27.2676C25.9451 27.0659 26.1173 26.7225 26.2795 26.8489C26.3859 26.9296 26.2289 27.0507 26.3404 27.1215C26.4623 27.1969 26.6394 27.187 26.7154 27.1715C26.8929 27.1264 27.0651 27.081 27.227 27.0659C27.303 27.0609 27.4296 27.0254 27.4554 27.1011C27.4755 27.1515 27.42 27.187 27.3638 27.2071C27.298 27.2275 27.1966 27.2124 27.1411 27.2676C27.0952 27.3131 27.0502 27.3638 27.0651 27.4293C27.0852 27.505 27.1665 27.5455 27.2478 27.5202C27.5535 27.436 27.8681 27.3884 28.185 27.3786C28.3529 27.3786 28.3166 27.5001 28.2359 27.5452C28.1804 27.5754 28.0938 27.6008 28.0383 27.606C27.7396 27.6409 27.5162 27.6614 27.5515 27.8329C27.5766 27.9491 27.7647 27.8378 27.8047 27.9237C27.8506 28.0146 27.724 28.065 27.7343 28.1258C27.7647 28.3178 28.1345 28.2773 28.3067 28.2368C28.4332 28.2065 28.6358 28.1058 28.6966 28.1865C28.7528 28.2569 28.7069 28.3682 28.6358 28.3886C28.4531 28.4389 28.1395 28.5298 28.0528 28.6305C27.9715 28.7266 28.0684 28.9235 28.1645 28.9337C28.3827 28.9587 28.6209 28.9587 28.7931 29.0091C28.8582 29.0295 28.9144 29.075 28.9144 29.1454C28.9144 29.2211 28.8384 29.2464 28.7776 29.2665C28.6606 29.3017 28.4633 29.3017 28.3569 29.3475C28.3215 29.3627 28.2505 29.388 28.2607 29.4282C28.2911 29.5039 28.4435 29.4834 28.5701 29.4986C28.6411 29.5039 28.7779 29.5595 28.7779 29.6352C28.7779 29.7162 28.7069 29.7412 28.5803 29.7314C28.3827 29.7162 28.2003 29.7412 28.1143 29.7767C28.0886 29.7866 27.9369 29.8067 27.9415 29.8778C27.9517 29.9634 28.1143 29.9081 28.1546 29.994C28.19 30.075 28.079 30.1201 28.0687 30.2212C28.0687 30.2617 28.0889 30.2818 28.1295 30.2969C28.2611 30.3522 28.4127 30.3469 28.5453 30.3223C28.6821 30.2969 28.7323 30.4789 28.697 30.499C28.5201 30.5948 28.1246 30.4941 28.0333 30.5494C27.9068 30.63 28.2459 30.8117 28.2359 30.8522C28.2257 30.8977 28.185 30.9431 28.1546 30.9533C27.9825 31.0188 27.7597 30.8924 27.6332 30.9635C27.5268 31.029 27.5717 31.1956 27.5059 31.2815C27.4246 31.3875 27.2425 31.3421 27.1613 31.4026C27.0555 31.478 27.0502 31.6601 27.1665 31.7713C27.2581 31.8569 27.344 31.9172 27.4603 31.9732C27.9877 32.2355 28.535 32.4978 29.0469 32.4623C29.3103 32.4475 29.7416 32.4327 29.9795 32.4932C30.2888 32.5687 30.6031 32.8057 30.765 32.9074C30.8966 32.9877 31.1098 33.0085 31.277 32.9472C31.3982 32.9074 31.4795 32.7658 31.4544 32.6443C31.3784 32.2404 30.7089 32.1147 30.6993 31.7108C30.689 31.2463 30.6484 30.9938 30.4967 30.7008C30.4405 30.5899 30.431 30.3324 30.5624 30.2972C30.6689 30.2719 30.7046 30.4184 30.7902 30.3831C31.1808 30.2317 31.1963 29.6158 31.6015 29.4993C31.8391 29.4338 32.6402 29.4239 32.5741 29.3228C32.4069 29.0851 32.4832 28.8129 32.5741 28.6865C32.6349 28.6058 32.8017 28.5248 32.8685 28.6058C32.9594 28.7118 32.7311 28.8379 32.7466 28.9946C32.7614 29.1411 32.975 29.4239 32.8123 29.5753C32.7162 29.6661 31.9914 29.6967 31.7783 30.0197C31.6468 30.2162 31.6319 30.3729 31.7885 30.3578C31.9151 30.3426 32.0215 30.1912 32.1385 30.1053C32.3464 29.9542 32.5136 29.8933 32.6302 30.0042C32.691 30.0596 32.6097 30.1659 32.498 30.1962C32.4072 30.2264 32.1844 30.4638 32.2449 30.5244C32.3358 30.6201 32.8428 30.1813 32.9697 30.2719C33.0354 30.3223 32.7211 30.6455 32.7766 30.7311C32.8424 30.8371 33.0555 30.6705 33.1213 30.7515C33.2175 30.8727 32.9541 31.11 32.8017 31.216C32.6854 31.2914 32.7307 31.5745 32.5635 31.6604C32.3764 31.7513 32.2899 31.9122 32.3103 31.9379C32.3305 31.9778 32.3761 32.0087 32.4472 31.9629C32.655 31.8319 32.9131 31.6752 33.0195 31.7157C33.0803 31.7411 32.9944 32.0284 32.9181 32.1648C32.8417 32.301 33.2274 32.2253 33.1712 32.3415C33.1312 32.4277 33.1055 32.5588 33.1312 32.6796C33.1617 32.8366 32.7155 32.8712 32.6749 32.9772C32.6296 33.0986 32.7208 33.1289 32.7657 33.1342C33.0348 33.1747 32.9994 33.4216 32.893 33.5276C32.7508 33.6692 32.5076 33.7244 32.2945 33.6889C32.1117 33.6586 31.7019 33.5836 31.4587 33.4015C31.3827 33.3462 31.271 33.386 31.2561 33.4621C31.2406 33.5483 31.3318 33.7044 31.3725 33.8357C31.4287 34.0326 31.3976 34.2801 31.3318 34.4724C31.1903 34.871 30.8103 35.2042 30.7039 35.6838C30.6781 35.8099 30.7142 35.9666 30.7647 36.0877C30.8764 36.3508 31.0384 36.5976 31.2204 36.8202C31.2462 36.891 31.2819 36.9713 31.2515 37.0368C31.2109 37.1378 30.8966 37.3551 30.8054 37.4414C30.5162 37.7087 30.2677 38.0573 30.2122 38.4359C30.1917 38.5721 29.8979 38.7084 29.7002 38.7637C29.5539 38.8042 29.4015 38.8447 29.2802 38.9405C29.2647 39.0511 29.3304 39.1476 29.3453 39.2582C29.3711 39.4505 29.1279 39.5462 28.9399 39.6068C28.8539 39.6371 28.7624 39.6628 28.6609 39.6628C28.6256 39.6628 28.6156 39.6016 28.6209 39.5716C28.6765 39.3092 28.7267 39.0972 28.8282 38.8803C28.8688 38.7993 28.9346 38.7338 29.001 38.6778L29.725 38.0721L30.2931 37.2593C30.3434 37.1836 30.3642 37.1178 30.3642 37.0624C30.3642 36.9055 30.2984 36.7596 30.1867 36.6585C30.0446 36.5318 29.8367 36.512 29.6801 36.4311C29.4775 36.33 29.1831 36.0479 29.1424 36.0272C29.0314 35.9718 28.9656 36.1737 28.9501 36.2895C28.925 36.4663 28.9805 36.6329 28.9752 36.8096C28.9752 36.8906 28.9656 36.9357 28.925 36.9864C28.4488 37.259 27.8555 37.36 27.5056 37.7939C27.4448 37.8697 27.3893 37.9509 27.308 38.0063C27.1103 38.1425 26.7812 37.9862 26.6338 38.1979C26.568 38.2943 26.6441 38.4204 26.6189 38.5264C26.6038 38.587 26.4871 38.6679 26.3959 38.7127C26.2739 38.7687 26.1427 38.7989 26.0105 38.8092C25.8634 38.7384 25.9547 38.5313 26.0052 38.3849C26.0558 38.2331 26.1272 38.082 26.2435 37.9809C26.4157 37.8292 26.6335 37.6376 26.7706 37.5721C26.8869 37.5161 27.0641 37.5161 27.2062 37.4608C27.3559 37.4151 27.4977 37.3471 27.6269 37.259C27.8341 37.128 28.0271 36.9663 28.1437 36.7441C28.2753 36.4913 28.2601 36.1539 28.0929 35.9366C27.9405 35.7397 27.7637 35.5475 27.6623 35.3259C27.6061 35.2045 27.6467 35.0379 27.7333 34.9266C27.728 34.9221 27.6669 34.8809 27.6318 34.8914C26.9068 34.9224 26.1721 34.8414 25.4979 34.5738C25.3205 34.503 25.1381 34.2755 25.0112 34.2607C24.8948 34.2452 24.8238 34.3917 24.7071 34.422C24.5197 34.4727 24.2762 34.4424 24.0584 34.422C23.805 34.397 23.2778 34.2857 22.8978 34.1649C22.837 34.1745 22.7712 34.185 22.7154 34.2202C22.6341 34.2755 22.6189 34.397 22.6139 34.4981C22.6037 34.6343 22.6443 34.7604 22.6288 34.902C22.6238 34.9727 22.5832 35.0485 22.6037 35.1143C22.6242 35.1946 22.7051 35.2302 22.7607 35.2809C22.8518 35.3664 22.8671 35.5433 22.8671 35.6848C22.8671 35.8411 22.8115 36.0486 22.9431 36.1549C23.0244 36.2197 23.1357 36.1344 23.2372 36.1549C23.3485 36.1749 23.3839 36.3113 23.3892 36.4173C23.3945 36.5381 23.293 36.7952 23.2269 36.8617C23.1813 36.9067 23.1053 36.8712 23.0495 36.8462C22.9028 36.7807 22.7656 36.6747 22.6846 36.5331C22.6493 36.4725 22.6493 36.3968 22.6136 36.3313C22.5577 36.2201 22.4563 36.1552 22.3551 36.0792C22.2335 35.988 22.2084 35.8214 22.1879 35.6753C22.1727 35.5383 22.1982 35.4073 22.2084 35.2707C22.2347 35.0005 22.2175 34.7279 22.1576 34.4632C22.1119 34.2613 22.0002 34.0592 22.0511 33.8574C22.0766 33.7617 22.1423 33.6704 22.2339 33.6299C22.7241 33.6072 23.2093 33.5224 23.678 33.3778L23.374 33.0795C23.298 33.0795 23.2372 33.1552 23.1612 33.1552C23.0799 33.1552 22.9685 33.0394 22.9381 32.9989C22.7808 32.7668 22.6797 32.4985 22.6086 32.226C22.5429 32.12 22.4619 32.0143 22.34 31.9636C22.2554 31.927 22.1637 31.9097 22.0716 31.9129C21.8181 32.0242 21.5852 32.2414 21.5647 32.5193C21.5597 32.5901 21.6001 32.6503 21.5901 32.7211C21.5752 32.8419 21.4837 32.9229 21.3975 33.0091C21.3112 33.0947 21.2303 33.1806 21.1949 33.3017C21.1642 33.4028 21.1998 33.5088 21.2451 33.6046C21.2755 33.6702 21.3112 33.7357 21.2858 33.8064C21.225 33.973 20.8247 34.1445 20.7081 34.1445C20.6674 34.1445 20.6321 34.0892 20.6168 34.0434C20.5713 33.8917 20.5815 33.7304 20.6119 33.5793C20.719 33.4637 20.7985 33.3257 20.8449 33.1754C20.906 32.9735 20.8753 32.7563 20.9718 32.569C21.225 32.14 21.8737 31.2818 22.0002 31.1558C22.0561 31.1004 22.1929 31.0698 22.2487 31.1054C22.5224 31.2821 22.6846 31.4991 22.948 31.6354C23.0902 31.7062 23.2673 31.8125 23.3942 31.7114C23.5208 31.6103 23.5409 30.9339 23.6222 30.762C23.7706 30.4641 24.181 30.0701 24.4649 29.7521ZM29.5096 25.5466L29.3979 25.9707H28.9924L29.5198 23.9817H29.9809L30.4881 25.9555H30.082L29.9805 25.5466H29.5096ZM29.925 25.1855L29.7423 24.3879L29.57 25.1855H29.925ZM28.4445 24.5535C28.4497 24.4221 28.4091 24.2506 28.303 24.2101C28.1913 24.1696 28.0746 24.2052 28.0241 24.2809C27.9375 24.4221 27.9375 24.614 27.9428 24.9067C27.9428 25.0834 27.9481 25.3307 27.9835 25.4472C28.0694 25.7145 28.2977 25.73 28.4088 25.5631C28.4649 25.4825 28.4649 25.3257 28.4596 25.1845H28.226V24.8916H28.8294V25.9618H28.541V25.8156C28.5357 25.8258 28.4088 25.9216 28.348 25.9522C28.2465 25.9973 28.0542 25.9973 27.8975 25.9318C27.7654 25.8762 27.6388 25.6997 27.5832 25.4722C27.527 25.2349 27.5522 24.9268 27.5522 24.6644C27.5575 24.3865 27.7046 24.0788 27.9071 23.9626C28.0492 23.8819 28.3126 23.8819 28.4795 23.9425C28.6828 24.0132 28.8397 24.3059 28.8093 24.5535H28.4445ZM21.6552 24.0116C21.8175 24.1127 21.9034 24.2996 21.8737 24.5166H21.5541C21.5541 24.3148 21.4682 24.2187 21.2957 24.2137C21.1892 24.2088 21.0574 24.3299 21.0574 24.4208C21.0521 24.6881 21.2904 24.7437 21.4526 24.7941C21.5742 24.8297 21.7213 24.9054 21.7923 25.0114C21.9239 25.2033 21.9394 25.4051 21.833 25.6678C21.7825 25.7938 21.5898 25.9453 21.4275 25.9808C21.2451 26.0213 21.022 26.0013 20.8396 25.8647C20.6925 25.7537 20.6264 25.5364 20.6569 25.3396H21.0167C21.0167 25.4357 21.032 25.5061 21.0726 25.5667C21.103 25.6072 21.1589 25.6727 21.255 25.6777C21.2932 25.6804 21.3315 25.6748 21.3673 25.6612C21.4031 25.6476 21.4354 25.6263 21.462 25.5988C21.4886 25.5714 21.5088 25.5384 21.5212 25.5023C21.5336 25.4662 21.5378 25.4279 21.5336 25.3899C21.5134 25.0818 20.9966 25.0617 20.8191 24.8649C20.606 24.6226 20.6721 24.2338 20.8442 24.0771C21.0828 23.8552 21.4074 23.8552 21.6552 24.0116ZM31.8886 25.3284C31.8939 25.4041 31.8989 25.6717 31.9088 25.8432C31.9141 25.8936 31.965 25.9594 31.965 25.9644H31.5849C31.5341 25.9644 31.5288 25.8735 31.5241 25.7982C31.5139 25.5963 31.5337 25.1167 31.3364 25.1167H31.0932V25.9598H30.7131V23.9908H31.3972C31.7419 23.9908 31.9141 24.188 31.9141 24.4554C31.9141 24.6321 31.9088 24.8392 31.7062 24.9248C31.8123 25.0255 31.8731 25.1769 31.8886 25.3284ZM31.3679 24.275H31.0839V24.8053H31.2918C31.6362 24.8053 31.6312 24.275 31.3679 24.275ZM22.8109 25.968H22.4308V24.3069H21.9949V23.9737H23.2517V24.3069H22.8109V25.968ZM25.2577 25.968V24.3069H24.8218V23.9737H26.0835V24.3069H25.6374V25.968H25.2577ZM26.2547 23.9741H27.5165V24.3121H27.0704V25.968H26.6906V24.3121H26.2547V23.9741ZM32.8477 24.3125V25.9733H32.4677V24.3125H32.0321V23.9744H33.2889V24.3125H32.8477ZM24.2458 25.3959V23.9774H24.6156V25.3606C24.6156 26.1886 23.4094 26.1886 23.4094 25.386V23.9774H23.7792V25.4011C23.7795 25.7092 24.2458 25.7092 24.2458 25.3959ZM25.0991 26.8855C25.2108 26.7897 25.3674 26.6587 25.5498 26.5425C25.7121 26.4365 25.5297 26.6791 25.5194 26.7798C25.489 27.0524 25.2812 27.0826 25.0531 27.0323C25.0132 27.0221 25.0284 26.946 25.0991 26.8855ZM34.6299 33.2504L44.3098 33.2451L44.7404 27.9139L34.6299 27.9191V33.2504ZM26.4663 49.854L16.4823 49.8338C18.5399 51.6767 23.304 55.1246 26.4358 56.523L26.4663 49.854ZM19.2388 27.7733C19.0461 27.9448 18.6611 28.3691 18.5848 28.5607C18.7524 28.6213 19.0815 28.7678 19.2388 28.8738V27.7733Z" fill="#EEEEF0"/>
</svg>
