<svg width="50" height="64" viewBox="0 0 50 64" fill="none" xmlns="http://www.w3.org/2000/svg">
<path d="M37.6422 25.9852C35.3841 31.6527 30.1602 33.4562 30.1602 33.4562L32.03 37.3212C32.03 37.3212 32.2954 37.2564 32.7466 37.0964C33.9027 38.4002 38.4512 44.103 38.6754 53.0417C38.6754 53.0417 38.9959 56.7135 35.7066 59.2886H45.7062C45.7062 59.2886 44.4144 58.4511 43.8993 56.132C43.3832 53.8143 43.51 49.7549 41.3188 44.858C39.5513 40.9173 37.1183 36.851 36.2364 35.4167C38.9034 33.787 42.1751 30.9193 43.9632 26.1118C47.3155 17.0946 40.8676 10.3943 34.8042 9.23486C34.8042 9.23486 36.4793 12.2645 36.7397 14.4537C36.7397 14.4537 40.5609 18.6565 37.6422 25.9852ZM26.1582 38.9372C25.8829 38.0094 24.8753 36.0018 24.372 35.1732C22.5052 35.4873 20.7662 35.5914 19.3928 35.5914L19.3938 34.5891C18.7548 34.8149 15.9187 35.2253 14.7322 35.3656V55.3969C14.7322 57.4966 13.817 58.4973 13.177 59.412H20.945C20.3051 58.4973 19.3918 57.4966 19.3918 55.3987L19.3938 39.5164C21.8003 39.4791 24.1144 39.2778 26.1582 38.9372Z" fill="#EEEEF0" stroke="#EEEEF0" stroke-width="0.507263" stroke-miterlimit="22.926"/>
<path d="M4.04297 54.3936L11.8101 54.3917C11.1711 53.4765 10.2569 52.4763 10.2569 50.3766L10.2578 34.4959C15.4936 34.4085 19.8671 33.5456 23.3737 32.1545C28.7176 37.8701 29.3566 46.1787 29.449 48.4562C29.5394 50.7414 28.3529 52.7492 26.5234 54.3926H36.6685C35.1133 53.5698 34.5658 51.3805 34.4763 49.2809C33.4707 39.7894 28.171 32.3979 26.8881 30.4797C32.9093 26.8738 35.5705 21.3476 35.5705 16.2446C35.5705 7.75648 28.0767 3.74023 21.5885 3.74023H4.50009C5.13907 4.65225 5.59519 5.01746 5.59519 7.11643V50.3753C5.59519 52.4763 4.68294 53.4797 4.04297 54.3936ZM10.2578 6.75218H20.3095C27.2538 6.75218 29.5394 11.1346 29.449 15.7871C28.9919 28.6566 16.1964 30.5749 10.2578 30.5749V6.75218Z" fill="#EEEEF0" stroke="#EEEEF0" stroke-width="0.507263" stroke-miterlimit="22.926"/>
<path d="M25.018 8.61841L13.6382 8.61941C14.2801 9.53045 14.7362 9.89567 14.7362 11.9946V29.1513C16.2423 29.0159 18.3431 28.3306 19.393 27.9654V11.6304H27.6231C27.164 10.4916 25.9313 9.16721 25.018 8.61841Z" fill="#EEEEF0" stroke="#EEEEF0" stroke-width="0.507263" stroke-miterlimit="22.926"/>
</svg>
