<svg width="132" height="20" viewBox="0 0 132 20" fill="none" xmlns="http://www.w3.org/2000/svg">
<g clip-path="url(#clip0_71_299)">
<path d="M18.3203 8.93603L14.7969 12.011L15.8524 16.5892C15.9082 16.8285 15.8923 17.079 15.8065 17.3093C15.7208 17.5396 15.5691 17.7396 15.3703 17.8841C15.1716 18.0287 14.9346 18.1114 14.6891 18.1221C14.4436 18.1327 14.2004 18.0707 13.9899 17.9438L9.99689 15.522L6.01252 17.9438C5.80202 18.0707 5.55881 18.1327 5.31328 18.1221C5.06775 18.1114 4.83079 18.0287 4.63204 17.8841C4.4333 17.7396 4.28157 17.5396 4.19584 17.3093C4.1101 17.079 4.09416 16.8285 4.15002 16.5892L5.20392 12.0157L1.6797 8.93603C1.49331 8.77526 1.35852 8.56304 1.29225 8.32598C1.22598 8.08892 1.23117 7.83757 1.30718 7.60345C1.38319 7.36933 1.52663 7.16287 1.71952 7.00994C1.9124 6.85702 2.14614 6.76445 2.39142 6.74384L7.03674 6.34149L8.85002 2.01649C8.94471 1.78955 9.10443 1.5957 9.30907 1.45935C9.51371 1.323 9.75411 1.25024 10 1.25024C10.2459 1.25024 10.4863 1.323 10.691 1.45935C10.8956 1.5957 11.0553 1.78955 11.15 2.01649L12.9688 6.34149L17.6125 6.74384C17.8578 6.76445 18.0915 6.85702 18.2844 7.00994C18.4773 7.16287 18.6207 7.36933 18.6968 7.60345C18.7728 7.83757 18.778 8.08892 18.7117 8.32598C18.6454 8.56304 18.5106 8.77526 18.3242 8.93603H18.3203Z" fill="#FFC700"/>
</g>
<g clip-path="url(#clip1_71_299)">
<path d="M46.3203 8.93603L42.7969 12.011L43.8524 16.5892C43.9082 16.8285 43.8923 17.079 43.8065 17.3093C43.7208 17.5396 43.5691 17.7396 43.3703 17.8841C43.1716 18.0287 42.9346 18.1114 42.6891 18.1221C42.4436 18.1327 42.2004 18.0707 41.9899 17.9438L37.9969 15.522L34.0125 17.9438C33.802 18.0707 33.5588 18.1327 33.3133 18.1221C33.0677 18.1114 32.8308 18.0287 32.632 17.8841C32.4333 17.7396 32.2816 17.5396 32.1958 17.3093C32.1101 17.079 32.0942 16.8285 32.15 16.5892L33.2039 12.0157L29.6797 8.93603C29.4933 8.77526 29.3585 8.56304 29.2922 8.32598C29.226 8.08892 29.2312 7.83757 29.3072 7.60345C29.3832 7.36933 29.5266 7.16287 29.7195 7.00994C29.9124 6.85702 30.1461 6.76445 30.3914 6.74384L35.0367 6.34149L36.85 2.01649C36.9447 1.78955 37.1044 1.5957 37.3091 1.45935C37.5137 1.323 37.7541 1.25024 38 1.25024C38.2459 1.25024 38.4863 1.323 38.691 1.45935C38.8956 1.5957 39.0553 1.78955 39.15 2.01649L40.9688 6.34149L45.6125 6.74384C45.8578 6.76445 46.0915 6.85702 46.2844 7.00994C46.4773 7.16287 46.6207 7.36933 46.6968 7.60345C46.7728 7.83757 46.778 8.08892 46.7117 8.32598C46.6454 8.56304 46.5106 8.77526 46.3242 8.93603H46.3203Z" fill="#FFC700"/>
</g>
<g clip-path="url(#clip2_71_299)">
<path d="M74.3203 8.93603L70.7969 12.011L71.8524 16.5892C71.9082 16.8285 71.8923 17.079 71.8065 17.3093C71.7208 17.5396 71.5691 17.7396 71.3703 17.8841C71.1716 18.0287 70.9346 18.1114 70.6891 18.1221C70.4436 18.1327 70.2004 18.0707 69.9899 17.9438L65.9969 15.522L62.0125 17.9438C61.802 18.0707 61.5588 18.1327 61.3133 18.1221C61.0677 18.1114 60.8308 18.0287 60.632 17.8841C60.4333 17.7396 60.2816 17.5396 60.1958 17.3093C60.1101 17.079 60.0942 16.8285 60.15 16.5892L61.2039 12.0157L57.6797 8.93603C57.4933 8.77526 57.3585 8.56304 57.2922 8.32598C57.226 8.08892 57.2312 7.83757 57.3072 7.60345C57.3832 7.36933 57.5266 7.16287 57.7195 7.00994C57.9124 6.85702 58.1461 6.76445 58.3914 6.74384L63.0367 6.34149L64.85 2.01649C64.9447 1.78955 65.1044 1.5957 65.3091 1.45935C65.5137 1.323 65.7541 1.25024 66 1.25024C66.2459 1.25024 66.4863 1.323 66.691 1.45935C66.8956 1.5957 67.0553 1.78955 67.15 2.01649L68.9688 6.34149L73.6125 6.74384C73.8578 6.76445 74.0915 6.85702 74.2844 7.00994C74.4773 7.16287 74.6207 7.36933 74.6968 7.60345C74.7728 7.83757 74.778 8.08892 74.7117 8.32598C74.6454 8.56304 74.5106 8.77526 74.3242 8.93603H74.3203Z" fill="#FFC700"/>
</g>
<g clip-path="url(#clip3_71_299)">
<path d="M102.32 8.93603L98.7969 12.011L99.8524 16.5892C99.9082 16.8285 99.8923 17.079 99.8065 17.3093C99.7208 17.5396 99.5691 17.7396 99.3703 17.8841C99.1716 18.0287 98.9346 18.1114 98.6891 18.1221C98.4436 18.1327 98.2004 18.0707 97.9899 17.9438L93.9969 15.522L90.0125 17.9438C89.802 18.0707 89.5588 18.1327 89.3133 18.1221C89.0677 18.1114 88.8308 18.0287 88.632 17.8841C88.4333 17.7396 88.2816 17.5396 88.1958 17.3093C88.1101 17.079 88.0942 16.8285 88.15 16.5892L89.2039 12.0157L85.6797 8.93603C85.4933 8.77526 85.3585 8.56304 85.2922 8.32598C85.226 8.08892 85.2312 7.83757 85.3072 7.60345C85.3832 7.36933 85.5266 7.16287 85.7195 7.00994C85.9124 6.85702 86.1461 6.76445 86.3914 6.74384L91.0367 6.34149L92.85 2.01649C92.9447 1.78955 93.1044 1.5957 93.3091 1.45935C93.5137 1.323 93.7541 1.25024 94 1.25024C94.2459 1.25024 94.4863 1.323 94.691 1.45935C94.8956 1.5957 95.0553 1.78955 95.15 2.01649L96.9688 6.34149L101.613 6.74384C101.858 6.76445 102.092 6.85702 102.284 7.00994C102.477 7.16287 102.621 7.36933 102.697 7.60345C102.773 7.83757 102.778 8.08892 102.712 8.32598C102.645 8.56304 102.511 8.77526 102.324 8.93603H102.32Z" fill="#FFC700"/>
</g>
<g clip-path="url(#clip4_71_299)">
<path d="M130.32 8.93603L126.797 12.011L127.852 16.5892C127.908 16.8285 127.892 17.079 127.807 17.3093C127.721 17.5396 127.569 17.7396 127.37 17.8841C127.172 18.0287 126.935 18.1114 126.689 18.1221C126.444 18.1327 126.2 18.0707 125.99 17.9438L121.997 15.522L118.013 17.9438C117.802 18.0707 117.559 18.1327 117.313 18.1221C117.068 18.1114 116.831 18.0287 116.632 17.8841C116.433 17.7396 116.282 17.5396 116.196 17.3093C116.11 17.079 116.094 16.8285 116.15 16.5892L117.204 12.0157L113.68 8.93603C113.493 8.77526 113.359 8.56304 113.292 8.32598C113.226 8.08892 113.231 7.83757 113.307 7.60345C113.383 7.36933 113.527 7.16287 113.72 7.00994C113.912 6.85702 114.146 6.76445 114.391 6.74384L119.037 6.34149L120.85 2.01649C120.945 1.78955 121.104 1.5957 121.309 1.45935C121.514 1.323 121.754 1.25024 122 1.25024C122.246 1.25024 122.486 1.323 122.691 1.45935C122.896 1.5957 123.055 1.78955 123.15 2.01649L124.969 6.34149L129.613 6.74384C129.858 6.76445 130.092 6.85702 130.284 7.00994C130.477 7.16287 130.621 7.36933 130.697 7.60345C130.773 7.83757 130.778 8.08892 130.712 8.32598C130.645 8.56304 130.511 8.77526 130.324 8.93603H130.32Z" fill="#FFC700"/>
</g>
<defs>
<clipPath id="clip0_71_299">
<rect width="20" height="20" fill="white"/>
</clipPath>
<clipPath id="clip1_71_299">
<rect width="20" height="20" fill="white" transform="translate(28)"/>
</clipPath>
<clipPath id="clip2_71_299">
<rect width="20" height="20" fill="white" transform="translate(56)"/>
</clipPath>
<clipPath id="clip3_71_299">
<rect width="20" height="20" fill="white" transform="translate(84)"/>
</clipPath>
<clipPath id="clip4_71_299">
<rect width="20" height="20" fill="white" transform="translate(112)"/>
</clipPath>
</defs>
</svg>
