<svg width="32" height="33" viewBox="0 0 32 33" fill="none" xmlns="http://www.w3.org/2000/svg">
<g clip-path="url(#clip0_71_528)">
<path d="M29.2913 9.19C29.1735 8.72919 28.9478 8.30298 28.6329 7.94654C28.318 7.59011 27.9228 7.31366 27.48 7.14C23.195 5.485 16.375 5.5 16 5.5C15.625 5.5 8.805 5.485 4.52 7.14C4.0772 7.31366 3.68204 7.59011 3.36712 7.94654C3.05219 8.30298 2.82653 8.72919 2.70875 9.19C2.385 10.4375 2 12.7175 2 16.5C2 20.2825 2.385 22.5625 2.70875 23.81C2.82636 24.271 3.05194 24.6975 3.36687 25.0542C3.68181 25.4108 4.07706 25.6875 4.52 25.8613C8.625 27.445 15.05 27.5 15.9175 27.5H16.0825C16.95 27.5 23.3787 27.445 27.48 25.8613C27.9229 25.6875 28.3182 25.4108 28.6331 25.0542C28.9481 24.6975 29.1736 24.271 29.2913 23.81C29.615 22.56 30 20.2825 30 16.5C30 12.7175 29.615 10.4375 29.2913 9.19ZM20.2775 16.9163L14.2775 20.9163C14.2022 20.9665 14.1146 20.9954 14.0242 20.9997C13.9338 21.0041 13.8438 20.9839 13.764 20.9411C13.6842 20.8984 13.6175 20.8348 13.571 20.7571C13.5245 20.6794 13.4999 20.5905 13.5 20.5V12.5C13.4999 12.4095 13.5245 12.3206 13.571 12.2429C13.6175 12.1652 13.6842 12.1016 13.764 12.0589C13.8438 12.0161 13.9338 11.9959 14.0242 12.0003C14.1146 12.0046 14.2022 12.0335 14.2775 12.0838L20.2775 16.0838C20.3461 16.1294 20.4023 16.1913 20.4412 16.2639C20.4801 16.3365 20.5005 16.4176 20.5005 16.5C20.5005 16.5824 20.4801 16.6635 20.4412 16.7361C20.4023 16.8087 20.3461 16.8706 20.2775 16.9163Z" fill="black"/>
</g>
<defs>
<clipPath id="clip0_71_528">
<rect width="32" height="32" fill="white" transform="translate(0 0.5)"/>
</clipPath>
</defs>
</svg>
