<svg width="16" height="16" viewBox="0 0 16 16" fill="none" xmlns="http://www.w3.org/2000/svg">
<g clip-path="url(#clip0_127_634)">
<path d="M14.6456 4.345C14.5867 4.11459 14.4739 3.90149 14.3164 3.72327C14.159 3.54505 13.9614 3.40683 13.74 3.32C11.5975 2.4925 8.1875 2.5 8 2.5C7.8125 2.5 4.4025 2.4925 2.26 3.32C2.0386 3.40683 1.84102 3.54505 1.68356 3.72327C1.5261 3.90149 1.41327 4.11459 1.35438 4.345C1.1925 4.96875 1 6.10875 1 8C1 9.89125 1.1925 11.0313 1.35438 11.655C1.41318 11.8855 1.52597 12.0988 1.68344 12.2771C1.8409 12.4554 2.03853 12.5937 2.26 12.6806C4.3125 13.4725 7.525 13.5 7.95875 13.5H8.04125C8.475 13.5 11.6894 13.4725 13.74 12.6806C13.9615 12.5937 14.1591 12.4554 14.3166 12.2771C14.474 12.0988 14.5868 11.8855 14.6456 11.655C14.8075 11.03 15 9.89125 15 8C15 6.10875 14.8075 4.96875 14.6456 4.345ZM10.1388 8.20813L7.13875 10.2081C7.10109 10.2333 7.05732 10.2477 7.0121 10.2499C6.96688 10.2521 6.92192 10.2419 6.882 10.2206C6.84209 10.1992 6.80873 10.1674 6.78548 10.1285C6.76223 10.0897 6.74997 10.0453 6.75 10V6C6.74997 5.95473 6.76223 5.9103 6.78548 5.87146C6.80873 5.83261 6.84209 5.80081 6.882 5.77944C6.92192 5.75807 6.96688 5.74794 7.0121 5.75013C7.05732 5.75232 7.10109 5.76675 7.13875 5.79188L10.1388 7.79188C10.173 7.8147 10.2012 7.84564 10.2206 7.88195C10.2401 7.91826 10.2502 7.95881 10.2502 8C10.2502 8.04119 10.2401 8.08175 10.2206 8.11806C10.2012 8.15437 10.173 8.18531 10.1388 8.20813Z" fill="#FF0000"/>
</g>
<defs>
<clipPath id="clip0_127_634">
<rect width="16" height="16" fill="white"/>
</clipPath>
</defs>
</svg>
